<svg xmlns="http://www.w3.org/2000/svg" viewBox="0 0 2560 793" preserveAspectRatio="none"><defs><linearGradient id="bg-gradient" x1="0%" y1="0%" x2="100%" y2="0%"><stop offset="0%" stop-color="#7543e3"/><stop offset="100%" stop-color="#3a0f6e"/></linearGradient></defs><rect width="100%" height="100%" fill="url(#bg-gradient)"/><linearGradient id="a" gradientUnits="userSpaceOnUse" x1="778.375" y1="377.245" x2="1141.306" y2="601.997" gradientTransform="translate(0 2)"><stop offset="0" stop-color="#ff9640"/><stop offset="1" stop-color="#e31587"/></linearGradient><path d="M1232.6 540.4c66.8-195.3-36.2-408.1-230-475.4L816.1.3H548.4L412.6 616.4l348.3 155.9c193.8 67.2 405-36.6 471.7-231.9z" fill="url(#a)"/><linearGradient id="b" gradientUnits="userSpaceOnUse" x1="-205.525" y1="792.275" x2="-205.699" y2="792.199" gradientTransform="matrix(3308.417 0 0 -2041.0673 681423 1617302.375)"><stop offset="0" stop-color="#9059ff"/><stop offset=".501" stop-color="#b833e1"/><stop offset="1" stop-color="#fc4055"/></linearGradient><path d="M548.4 430.2l232.8 234.6c144.9 146.1 379.9 146 524.8 0L1966.5.3H548.4v429.9z" fill="url(#b)"/><path fill="none" d="M2336.6-1275.3h3137v3212h-3137z"/><path d="M869.8 704.8c187.5 83.8 406.7-1.2 489.4-189.9 82.8-188.7-2.1-409.7-189.7-493.5-16.6-7.4-33.2-14.5-49.9-21.3H0v775.6c250.1-164.9 575.8-202.4 869.8-70.9z" fill="#201139"/></svg>
