<svg xmlns="http://www.w3.org/2000/svg" viewBox="0 0 1425 793" preserveAspectRatio="none"><rect width="100%" height="100%" fill="#FFFFFF"/><linearGradient id="a" gradientUnits="userSpaceOnUse" x1="230.459" y1="378.248" x2="593.39" y2="603"><stop offset="0" stop-color="#ff9640"/><stop offset="1" stop-color="#e31587"/></linearGradient><path d="M684.2 540.1C751 344.8 648 132 454.2 64.7L267.7 0H0v698.2L212.5 772c193.8 67.2 405-36.6 471.7-231.9z" fill="url(#a)"/><linearGradient id="b" gradientUnits="userSpaceOnUse" x1="-302.295" y1="792.269" x2="-302.47" y2="792.193" gradientTransform="matrix(3308.417 0 0 -2041.0673 1000988.375 1617300.375)"><stop offset="0" stop-color="#9059ff"/><stop offset=".742" stop-color="#b833e1"/><stop offset="1" stop-color="#fc4055"/></linearGradient><path d="M0 429.9l232.8 234.6c144.9 146.1 379.9 146 524.8 0L1417.1 0H0v429.9z" fill="url(#b)"/><g><path d="M343.8 720c195.1 64.2 404.4-42.9 467.4-239.1S767 73.6 571.9 9.4C562.1 6.2 552.2 3 542.4 0H0v676.2c113-7.5 229.4 6.2 343.8 43.8z" fill="#20123a"/></g></svg>
