<svg xmlns="http://www.w3.org/2000/svg" xmlns:xlink="http://www.w3.org/1999/xlink" viewBox="0 0 303 311.1"><defs><style>.cls-1{isolation:isolate;}.cls-2{fill:url(#radial-gradient);}.cls-3{opacity:0.67;}.cls-4{fill:url(#radial-gradient-2);}.cls-5{fill:url(#radial-gradient-3);}.cls-6{fill:url(#radial-gradient-4);}.cls-7{fill:url(#radial-gradient-5);}.cls-8{fill:url(#linear-gradient);}.cls-9{fill:url(#radial-gradient-6);}.cls-10{fill:url(#radial-gradient-7);}.cls-11,.cls-12{opacity:0.53;mix-blend-mode:multiply;}.cls-11{fill:url(#radial-gradient-8);}.cls-12{fill:url(#radial-gradient-9);}.cls-13{fill:url(#radial-gradient-10);}.cls-14{fill:url(#linear-gradient-2);}.cls-15{fill:url(#linear-gradient-3);}.cls-16{fill:url(#linear-gradient-4);}</style><radialGradient id="radial-gradient" cx="-997.08" cy="-463.24" fx="-985.7176767609176" r="317.73" gradientTransform="translate(1258.44 532.89)" gradientUnits="userSpaceOnUse"><stop offset="0" stop-color="#fff44f"/><stop offset="0.29" stop-color="#ff980e"/><stop offset="0.43" stop-color="#ff5d36"/><stop offset="0.53" stop-color="#ff3750"/><stop offset="0.75" stop-color="#f5156c"/><stop offset="0.76" stop-color="#f1136e"/><stop offset="0.88" stop-color="#da057a"/><stop offset="0.95" stop-color="#d2007f"/></radialGradient><radialGradient id="radial-gradient-2" cx="-1224.24" cy="-450.09" fx="-1217.5126355371347" r="188.04" gradientTransform="translate(1258.44 532.89)" gradientUnits="userSpaceOnUse"><stop offset="0" stop-color="#b5007f"/><stop offset="1" stop-color="#f5156c" stop-opacity="0"/></radialGradient><radialGradient id="radial-gradient-3" cx="-969.92" cy="-481.32" fx="-956.5764437098385" fy="-487.9121009331888" r="373.1" gradientTransform="translate(1258.44 532.89)" gradientUnits="userSpaceOnUse"><stop offset="0" stop-color="#fd0" stop-opacity="0.6"/><stop offset="0.09" stop-color="#ffd702" stop-opacity="0.58"/><stop offset="0.2" stop-color="#fec606" stop-opacity="0.52"/><stop offset="0.32" stop-color="#fda90e" stop-opacity="0.43"/><stop offset="0.45" stop-color="#fc8119" stop-opacity="0.3"/><stop offset="0.57" stop-color="#fa4e27" stop-opacity="0.14"/><stop offset="0.66" stop-color="#f92433" stop-opacity="0"/></radialGradient><radialGradient id="radial-gradient-4" cx="159" cy="172.15" r="481.33" gradientUnits="userSpaceOnUse"><stop offset="0.15" stop-color="#960e18"/><stop offset="0.18" stop-color="#b11927" stop-opacity="0.74"/><stop offset="0.22" stop-color="#db293d" stop-opacity="0.34"/><stop offset="0.26" stop-color="#f5334b" stop-opacity="0.09"/><stop offset="0.27" stop-color="#ff3750" stop-opacity="0"/></radialGradient><radialGradient id="radial-gradient-5" cx="122.57" cy="166.1" r="481.33" gradientUnits="userSpaceOnUse"><stop offset="0.11" stop-color="#960e18"/><stop offset="0.15" stop-color="#b11927" stop-opacity="0.74"/><stop offset="0.21" stop-color="#db293d" stop-opacity="0.34"/><stop offset="0.26" stop-color="#f5334b" stop-opacity="0.09"/><stop offset="0.28" stop-color="#ff3750" stop-opacity="0"/></radialGradient><linearGradient id="linear-gradient" x1="-1087.03" y1="-489" x2="-1004.68" y2="-346.36" gradientTransform="translate(1258.44 532.89)" gradientUnits="userSpaceOnUse"><stop offset="0" stop-color="#ffbc04"/><stop offset="0.17" stop-color="#ffab02" stop-opacity="0.62"/><stop offset="0.34" stop-color="#ff9b01" stop-opacity="0.29"/><stop offset="0.45" stop-color="#ff9200" stop-opacity="0.08"/><stop offset="0.51" stop-color="#ff8e00" stop-opacity="0"/></linearGradient><radialGradient id="radial-gradient-6" cx="-1153.02" cy="-98.2" fx="-1141.8930674716707" r="311.02" gradientTransform="translate(1360.28 153.08) scale(0.96)" gradientUnits="userSpaceOnUse"><stop offset="0" stop-color="#ff980e"/><stop offset="0.3" stop-color="#ff7139"/><stop offset="0.48" stop-color="#ff5b51"/><stop offset="0.63" stop-color="#ff4f5e"/><stop offset="0.74" stop-color="#ff4055"/><stop offset="0.84" stop-color="#ff3750"/></radialGradient><radialGradient id="radial-gradient-7" cx="-1153.02" cy="-98.2" fx="-1141.8930674716707" r="311.02" gradientTransform="translate(1360.28 153.08) scale(0.96)" gradientUnits="userSpaceOnUse"><stop offset="0.08" stop-color="#ffde08"/><stop offset="0.15" stop-color="#ffdb08" stop-opacity="0.97"/><stop offset="0.25" stop-color="#ffd209" stop-opacity="0.88"/><stop offset="0.37" stop-color="#ffc40b" stop-opacity="0.73"/><stop offset="0.51" stop-color="#ffb00d" stop-opacity="0.53"/><stop offset="0.67" stop-color="#ff970f" stop-opacity="0.28"/><stop offset="0.82" stop-color="#ff7b12" stop-opacity="0"/></radialGradient><radialGradient id="radial-gradient-8" cx="185.79" cy="151.69" r="146.26" gradientTransform="matrix(0.25, 0.97, -1.01, 0.26, 293.25, -67.47)" gradientUnits="userSpaceOnUse"><stop offset="0.36" stop-color="#ff3750"/><stop offset="0.44" stop-color="#ff4d47" stop-opacity="0.63"/><stop offset="0.55" stop-color="#ff673d" stop-opacity="0.18"/><stop offset="0.59" stop-color="#ff7139" stop-opacity="0"/></radialGradient><radialGradient id="radial-gradient-9" cx="160.58" cy="164.08" r="146.26" gradientTransform="translate(0 -1.3)" gradientUnits="userSpaceOnUse"><stop offset="0.22" stop-color="#ff3750" stop-opacity="0.8"/><stop offset="0.27" stop-color="#ff444b" stop-opacity="0.63"/><stop offset="0.41" stop-color="#ff643e" stop-opacity="0.18"/><stop offset="0.47" stop-color="#ff7139" stop-opacity="0"/></radialGradient><radialGradient id="radial-gradient-10" cx="-1090.95" cy="-133.34" r="525.68" gradientTransform="translate(1360.28 153.08) scale(0.96)" gradientUnits="userSpaceOnUse"><stop offset="0.05" stop-color="#fff44f"/><stop offset="0.46" stop-color="#ff980e"/><stop offset="0.52" stop-color="#ff8424"/><stop offset="0.59" stop-color="#ff7634"/><stop offset="0.64" stop-color="#ff7139"/></radialGradient><linearGradient id="linear-gradient-2" x1="217.57" y1="41.38" x2="74.67" y2="288.89" gradientUnits="userSpaceOnUse"><stop offset="0" stop-color="#fff44f" stop-opacity="0.8"/><stop offset="0.09" stop-color="#fff44f" stop-opacity="0.7"/><stop offset="0.75" stop-color="#fff44f" stop-opacity="0"/></linearGradient><linearGradient id="linear-gradient-3" x1="-1086.36" y1="-340.47" x2="-1086.36" y2="-514.38" gradientTransform="translate(1258.44 532.89)" gradientUnits="userSpaceOnUse"><stop offset="0" stop-color="#3a8ee6"/><stop offset="0.24" stop-color="#5c79f0"/><stop offset="0.63" stop-color="#9059ff"/><stop offset="1" stop-color="#c139e6"/></linearGradient><linearGradient id="linear-gradient-4" x1="-1150.36" y1="-515.18" x2="-1009.25" y2="-374.06" gradientTransform="translate(1258.44 532.89)" gradientUnits="userSpaceOnUse"><stop offset="0.81" stop-color="#9059ff" stop-opacity="0"/><stop offset="1" stop-color="#6e008b" stop-opacity="0.5"/></linearGradient></defs><title>FF_Master_</title><g class="cls-1"><g id="Assets"><path class="cls-2" d="M262.81,71.56c-25.31-33.25-64.76-54-106.25-54.79-32.51-.65-55,9.1-67.67,16.93,17-9.84,41.6-15.42,63.14-15.14,55.41.71,114.91,38.34,123.75,106.19,10.14,77.89-44.23,142.9-120.73,143.09-84.16.22-135.34-74.12-122-140.89.67-3.34.33-6.58,1.45-9.73.63-11.74,5.08-30.15,14.67-48.95-9.69,5-22,20.83-28.12,35.48C12.3,124.89,9.21,150.16,12,174.2c.21,1.81.4,3.61.64,5.41a140.2,140.2,0,1,0,250.18-108ZM40.92,83.73Z"/><g class="cls-3"><path class="cls-4" d="M262.81,71.56c-25.31-33.25-64.76-54-106.25-54.79-32.51-.65-55,9.1-67.67,16.93,17-9.84,41.6-15.42,63.14-15.14,55.41.71,114.91,38.34,123.75,106.19,10.14,77.89-44.23,142.9-120.73,143.09-84.16.22-135.34-74.12-122-140.89.67-3.34.33-6.58,1.45-9.73.63-11.74,5.08-30.15,14.67-48.95-9.69,5-22,20.83-28.12,35.48C12.3,124.89,9.21,150.16,12,174.2c.21,1.81.4,3.61.64,5.41a140.2,140.2,0,1,0,250.18-108ZM40.92,83.73Z"/></g><path class="cls-5" d="M262.81,71.56c-25.31-33.25-64.76-54-106.25-54.79-32.51-.65-55,9.1-67.67,16.93,17-9.84,41.6-15.42,63.14-15.14,55.41.71,114.91,38.34,123.75,106.19,10.14,77.89-44.23,142.9-120.73,143.09-84.16.22-135.34-74.12-122-140.89.67-3.34.33-6.58,1.45-9.73.63-11.74,5.08-30.15,14.67-48.95-9.69,5-22,20.83-28.12,35.48C12.3,124.89,9.21,150.16,12,174.2c.21,1.81.4,3.61.64,5.41a140.2,140.2,0,1,0,250.18-108ZM40.92,83.73Z"/><path class="cls-6" d="M262.81,71.56c-25.31-33.25-64.76-54-106.25-54.79-32.51-.65-55,9.1-67.67,16.93,17-9.84,41.6-15.42,63.14-15.14,55.41.71,114.91,38.34,123.75,106.19,10.14,77.89-44.23,142.9-120.73,143.09-84.16.22-135.34-74.12-122-140.89.67-3.34.33-6.58,1.45-9.73.63-11.74,5.08-30.15,14.67-48.95-9.69,5-22,20.83-28.12,35.48C12.3,124.89,9.21,150.16,12,174.2c.21,1.81.4,3.61.64,5.41a140.2,140.2,0,1,0,250.18-108ZM40.92,83.73Z"/><path class="cls-7" d="M262.81,71.56c-25.31-33.25-64.76-54-106.25-54.79-32.51-.65-55,9.1-67.67,16.93,17-9.84,41.6-15.42,63.14-15.14,55.41.71,114.91,38.34,123.75,106.19,10.14,77.89-44.23,142.9-120.73,143.09-84.16.22-135.34-74.12-122-140.89.67-3.34.33-6.58,1.45-9.73.63-11.74,5.08-30.15,14.67-48.95-9.69,5-22,20.83-28.12,35.48C12.3,124.89,9.21,150.16,12,174.2c.21,1.81.4,3.61.64,5.41a140.2,140.2,0,1,0,250.18-108ZM40.92,83.73Z"/><path class="cls-8" d="M275.78,124.75a142.5,142.5,0,0,1,1.05,25.31q7-1,14-1.85a139.53,139.53,0,0,0-28-76.65c-25.31-33.25-64.76-54-106.25-54.79-32.51-.65-55,9.1-67.67,16.93,17-9.84,41.6-15.42,63.14-15.14C207.44,19.27,266.94,56.9,275.78,124.75Z"/><path class="cls-9" d="M279.19,120.88C271.31,50,207.92,18.1,152,18.56c-21.54.18-46.14,5.3-63.14,15.14a69.31,69.31,0,0,0-12.46,9.44c.45-.37,1.8-1.48,4-3l.22-.15.2-.13A93.33,93.33,0,0,1,107.8,27.37c14.77-4.32,30.76-5.76,46.14-5.38,63.21,3.64,107.82,56,109.37,111.69,1.29,46.12-36.54,82.89-80.15,85-31.72,1.55-61.6-13.76-76.2-44.39a75.75,75.75,0,0,1-6.87-22.12c-6.92-46.61,24.46-86.36,53.24-96.2C137.8,42.46,98.91,43.38,70,64.62,49.11,79.92,35.59,103.2,31.11,131c-3.42,21.18-.2,43.2,8.19,62.87a124.29,124.29,0,0,0,39.92,50.71,125.54,125.54,0,0,0,65.39,24.14c3.47.26,7,.39,10.44.39C247.67,269.08,287.86,199,279.19,120.88Z"/><path class="cls-10" d="M279.19,120.88C271.31,50,207.92,18.1,152,18.56c-21.54.18-46.14,5.3-63.14,15.14a69.31,69.31,0,0,0-12.46,9.44c.45-.37,1.8-1.48,4-3l.22-.15.2-.13A93.33,93.33,0,0,1,107.8,27.37c14.77-4.32,30.76-5.76,46.14-5.38,63.21,3.64,107.82,56,109.37,111.69,1.29,46.12-36.54,82.89-80.15,85-31.72,1.55-61.6-13.76-76.2-44.39a75.75,75.75,0,0,1-6.87-22.12c-6.92-46.61,24.46-86.36,53.24-96.2C137.8,42.46,98.91,43.38,70,64.62,49.11,79.92,35.59,103.2,31.11,131c-3.42,21.18-.2,43.2,8.19,62.87a124.29,124.29,0,0,0,39.92,50.71,125.54,125.54,0,0,0,65.39,24.14c3.47.26,7,.39,10.44.39C247.67,269.08,287.86,199,279.19,120.88Z"/><path class="cls-11" d="M279.19,120.88C271.31,50,207.92,18.1,152,18.56c-21.54.18-46.14,5.3-63.14,15.14a69.31,69.31,0,0,0-12.46,9.44c.45-.37,1.8-1.48,4-3l.22-.15.2-.13A93.33,93.33,0,0,1,107.8,27.37c14.77-4.32,30.76-5.76,46.14-5.38,63.21,3.64,107.82,56,109.37,111.69,1.29,46.12-36.54,82.89-80.15,85-31.72,1.55-61.6-13.76-76.2-44.39a75.75,75.75,0,0,1-6.87-22.12c-6.92-46.61,24.46-86.36,53.24-96.2C137.8,42.46,98.91,43.38,70,64.62,49.11,79.92,35.59,103.2,31.11,131c-3.42,21.18-.2,43.2,8.19,62.87a124.29,124.29,0,0,0,39.92,50.71,125.54,125.54,0,0,0,65.39,24.14c3.47.26,7,.39,10.44.39C247.67,269.08,287.86,199,279.19,120.88Z"/><path class="cls-12" d="M279.19,120.88C271.31,50,207.92,18.1,152,18.56c-21.54.18-46.14,5.3-63.14,15.14a69.31,69.31,0,0,0-12.46,9.44c.45-.37,1.8-1.48,4-3l.22-.15.2-.13A93.33,93.33,0,0,1,107.8,27.37c14.77-4.32,30.76-5.76,46.14-5.38,63.21,3.64,107.82,56,109.37,111.69,1.29,46.12-36.54,82.89-80.15,85-31.72,1.55-61.6-13.76-76.2-44.39a75.75,75.75,0,0,1-6.87-22.12c-6.92-46.61,24.46-86.36,53.24-96.2C137.8,42.46,98.91,43.38,70,64.62,49.11,79.92,35.59,103.2,31.11,131c-3.42,21.18-.2,43.2,8.19,62.87a124.29,124.29,0,0,0,39.92,50.71,125.54,125.54,0,0,0,65.39,24.14c3.47.26,7,.39,10.44.39C247.67,269.08,287.86,199,279.19,120.88Z"/><path class="cls-13" d="M183.16,218.7c59.86-3.63,85.47-53.06,87.07-88.15C272.74,75.76,240.15,16.67,153.94,22c-15.38-.38-31.37,1.06-46.14,5.38A101,101,0,0,0,80.88,39.85l-.2.13-.22.15q-2,1.41-3.93,2.94c2.4-1.64,32.13-19.15,73.43-13.74,49.49,6.47,94.74,44.89,94.74,95.58,0,39-30.21,68.77-65.58,66.64-52.55-3.16-65.79-56.92-38.46-80.15-7.37-1.58-21.23,1.52-30.87,15.91-8.66,12.91-8.17,32.85-2.83,47C121.56,204.94,151.46,220.62,183.16,218.7Z"/><path class="cls-14" d="M262.8,71.56a139.26,139.26,0,0,0-12.18-13.9A109.39,109.39,0,0,0,239.5,47.44,84.75,84.75,0,0,1,246,53.69a78.51,78.51,0,0,1,17.09,28.43c7.31,22.1,6.83,49.76-7.13,71.48-16.63,25.89-43.72,38.67-73,38-1.27,0-2.54,0-3.82-.09-52.55-3.16-65.79-56.92-38.46-80.15-7.37-1.58-21.23,1.52-30.87,15.91-8.66,12.91-8.17,32.85-2.83,47a75.75,75.75,0,0,1-6.87-22.12c-6.92-46.61,24.46-86.36,53.24-96.2C137.8,42.46,98.91,43.38,70,64.62,53.09,77,41,94.61,34.65,115.59c.94-11.77,5.4-29.36,14.56-47.32-9.69,5-22,20.83-28.12,35.48C12.3,124.89,9.21,150.16,12,174.2c.21,1.81.4,3.61.64,5.41a140.2,140.2,0,1,0,250.17-108Z"/><path class="cls-15" d="M263.05,82.12A78.35,78.35,0,0,0,246,53.69c-8.93-9.64-20.06-17-31.83-22.68A142.12,142.12,0,0,0,182.85,20a139.78,139.78,0,0,0-58-.34C105,23.8,87.49,32.39,76.43,43.12c8.29-5,19.86-9.1,28.1-11.18,38.26-9.65,80.39.8,109.11,28.28a94.24,94.24,0,0,1,15.15,18.51c17.13,27.79,15.51,62.73,2.15,83.34-9.92,15.3-31.17,29.66-51,29.51,30.42,1.59,58.79-11.21,76-38C269.89,131.88,270.37,104.22,263.05,82.12Z"/><path class="cls-16" d="M263.05,82.12A78.35,78.35,0,0,0,246,53.69c-8.93-9.64-20.06-17-31.83-22.68A142.12,142.12,0,0,0,182.85,20a139.78,139.78,0,0,0-58-.34C105,23.8,87.49,32.39,76.43,43.12c8.29-5,19.86-9.1,28.1-11.18,38.26-9.65,80.39.8,109.11,28.28a94.24,94.24,0,0,1,15.15,18.51c17.13,27.79,15.51,62.73,2.15,83.34-9.92,15.3-31.17,29.66-51,29.51,30.42,1.59,58.79-11.21,76-38C269.89,131.88,270.37,104.22,263.05,82.12Z"/></g></g></svg>