<svg xmlns="http://www.w3.org/2000/svg" xmlns:xlink="http://www.w3.org/1999/xlink" viewBox="0 0 415.96 504"><defs><style>.cls-1{isolation:isolate;}.cls-2{fill:#20133a;}.cls-3{fill:url(#radial-gradient);}.cls-4{opacity:0.67;}.cls-5{fill:url(#radial-gradient-2);}.cls-6{fill:url(#radial-gradient-3);}.cls-7{fill:url(#radial-gradient-4);}.cls-8{fill:url(#radial-gradient-5);}.cls-9{fill:url(#linear-gradient);}.cls-10{fill:url(#radial-gradient-6);}.cls-11{fill:url(#radial-gradient-7);}.cls-12,.cls-13{opacity:0.53;mix-blend-mode:multiply;}.cls-12{fill:url(#radial-gradient-8);}.cls-13{fill:url(#radial-gradient-9);}.cls-14{fill:url(#radial-gradient-10);}.cls-15{fill:url(#linear-gradient-2);}.cls-16{fill:url(#linear-gradient-3);}.cls-17{fill:url(#linear-gradient-4);}</style><radialGradient id="radial-gradient" cx="-940.08" cy="-423.31" fx="-928.7176767609201" r="317.73" gradientTransform="translate(1258.44 532.89)" gradientUnits="userSpaceOnUse"><stop offset="0" stop-color="#fff44f"/><stop offset="0.29" stop-color="#ff980e"/><stop offset="0.43" stop-color="#ff5d36"/><stop offset="0.53" stop-color="#ff3750"/><stop offset="0.75" stop-color="#f5156c"/><stop offset="0.76" stop-color="#f1136e"/><stop offset="0.88" stop-color="#da057a"/><stop offset="0.95" stop-color="#d2007f"/></radialGradient><radialGradient id="radial-gradient-2" cx="-1167.24" cy="-410.17" fx="-1160.5126355371374" r="188.04" gradientTransform="translate(1258.44 532.89)" gradientUnits="userSpaceOnUse"><stop offset="0" stop-color="#b5007f"/><stop offset="1" stop-color="#f5156c" stop-opacity="0"/></radialGradient><radialGradient id="radial-gradient-3" cx="-912.92" cy="-441.39" fx="-899.576443709841" fy="-447.98621865030924" r="373.1" gradientTransform="translate(1258.44 532.89)" gradientUnits="userSpaceOnUse"><stop offset="0" stop-color="#fd0" stop-opacity="0.6"/><stop offset="0.09" stop-color="#ffd702" stop-opacity="0.58"/><stop offset="0.2" stop-color="#fec606" stop-opacity="0.52"/><stop offset="0.32" stop-color="#fda90e" stop-opacity="0.43"/><stop offset="0.45" stop-color="#fc8119" stop-opacity="0.3"/><stop offset="0.57" stop-color="#fa4e27" stop-opacity="0.14"/><stop offset="0.66" stop-color="#f92433" stop-opacity="0"/></radialGradient><radialGradient id="radial-gradient-4" cx="216" cy="212.08" r="481.33" gradientUnits="userSpaceOnUse"><stop offset="0.15" stop-color="#960e18"/><stop offset="0.18" stop-color="#b11927" stop-opacity="0.74"/><stop offset="0.22" stop-color="#db293d" stop-opacity="0.34"/><stop offset="0.26" stop-color="#f5334b" stop-opacity="0.09"/><stop offset="0.27" stop-color="#ff3750" stop-opacity="0"/></radialGradient><radialGradient id="radial-gradient-5" cx="179.57" cy="206.03" r="481.33" gradientUnits="userSpaceOnUse"><stop offset="0.11" stop-color="#960e18"/><stop offset="0.15" stop-color="#b11927" stop-opacity="0.74"/><stop offset="0.21" stop-color="#db293d" stop-opacity="0.34"/><stop offset="0.26" stop-color="#f5334b" stop-opacity="0.09"/><stop offset="0.28" stop-color="#ff3750" stop-opacity="0"/></radialGradient><linearGradient id="linear-gradient" x1="-1030.03" y1="-449.08" x2="-947.68" y2="-306.43" gradientTransform="translate(1258.44 532.89)" gradientUnits="userSpaceOnUse"><stop offset="0" stop-color="#ffbc04"/><stop offset="0.17" stop-color="#ffab02" stop-opacity="0.62"/><stop offset="0.34" stop-color="#ff9b01" stop-opacity="0.29"/><stop offset="0.45" stop-color="#ff9200" stop-opacity="0.08"/><stop offset="0.51" stop-color="#ff8e00" stop-opacity="0"/></linearGradient><radialGradient id="radial-gradient-6" cx="-1043.55" cy="-31.47" fx="-1032.4246090656227" r="311.02" gradientTransform="translate(1312.31 129.02) scale(0.96)" gradientUnits="userSpaceOnUse"><stop offset="0" stop-color="#ff980e"/><stop offset="0.3" stop-color="#ff7139"/><stop offset="0.48" stop-color="#ff5b51"/><stop offset="0.63" stop-color="#ff4f5e"/><stop offset="0.74" stop-color="#ff4055"/><stop offset="0.84" stop-color="#ff3750"/></radialGradient><radialGradient id="radial-gradient-7" cx="-1043.55" cy="-31.47" fx="-1032.4246090656227" r="311.02" gradientTransform="translate(1312.31 129.02) scale(0.96)" gradientUnits="userSpaceOnUse"><stop offset="0.08" stop-color="#ffde08"/><stop offset="0.15" stop-color="#ffdb08" stop-opacity="0.97"/><stop offset="0.25" stop-color="#ffd209" stop-opacity="0.88"/><stop offset="0.37" stop-color="#ffc40b" stop-opacity="0.73"/><stop offset="0.51" stop-color="#ffb00d" stop-opacity="0.53"/><stop offset="0.67" stop-color="#ff970f" stop-opacity="0.28"/><stop offset="0.82" stop-color="#ff7b12" stop-opacity="0"/></radialGradient><radialGradient id="radial-gradient-8" cx="242.79" cy="191.62" r="146.26" gradientTransform="matrix(0.25, 0.97, -1.01, 0.26, 376.53, -93.07)" gradientUnits="userSpaceOnUse"><stop offset="0.36" stop-color="#ff3750"/><stop offset="0.44" stop-color="#ff4d47" stop-opacity="0.63"/><stop offset="0.55" stop-color="#ff673d" stop-opacity="0.18"/><stop offset="0.59" stop-color="#ff7139" stop-opacity="0"/></radialGradient><radialGradient id="radial-gradient-9" cx="217.58" cy="204.01" r="146.26" gradientTransform="translate(0 -0.78)" gradientUnits="userSpaceOnUse"><stop offset="0.22" stop-color="#ff3750" stop-opacity="0.8"/><stop offset="0.27" stop-color="#ff444b" stop-opacity="0.63"/><stop offset="0.41" stop-color="#ff643e" stop-opacity="0.18"/><stop offset="0.47" stop-color="#ff7139" stop-opacity="0"/></radialGradient><radialGradient id="radial-gradient-10" cx="-981.48" cy="-66.6" r="525.68" gradientTransform="translate(1312.31 129.02) scale(0.96)" gradientUnits="userSpaceOnUse"><stop offset="0.05" stop-color="#fff44f"/><stop offset="0.46" stop-color="#ff980e"/><stop offset="0.52" stop-color="#ff8424"/><stop offset="0.59" stop-color="#ff7634"/><stop offset="0.64" stop-color="#ff7139"/></radialGradient><linearGradient id="linear-gradient-2" x1="274.57" y1="81.31" x2="131.67" y2="328.81" gradientUnits="userSpaceOnUse"><stop offset="0" stop-color="#fff44f" stop-opacity="0.8"/><stop offset="0.09" stop-color="#fff44f" stop-opacity="0.7"/><stop offset="0.75" stop-color="#fff44f" stop-opacity="0"/></linearGradient><linearGradient id="linear-gradient-3" x1="-1029.36" y1="-300.54" x2="-1029.36" y2="-474.45" gradientTransform="translate(1258.44 532.89)" gradientUnits="userSpaceOnUse"><stop offset="0" stop-color="#3a8ee6"/><stop offset="0.24" stop-color="#5c79f0"/><stop offset="0.63" stop-color="#9059ff"/><stop offset="1" stop-color="#c139e6"/></linearGradient><linearGradient id="linear-gradient-4" x1="-1093.36" y1="-475.25" x2="-952.25" y2="-334.13" gradientTransform="translate(1258.44 532.89)" gradientUnits="userSpaceOnUse"><stop offset="0.81" stop-color="#9059ff" stop-opacity="0"/><stop offset="1" stop-color="#6e008b" stop-opacity="0.5"/></linearGradient></defs><title>FF_Master_</title><g class="cls-1"><g id="Assets"><path class="cls-2" d="M83.73,392.3h37.34v10.1H94.45v13.7h26.62v10H94.45v22H83.73Zm50.05-3.9A6.28,6.28,0,0,1,133.7,401a5.93,5.93,0,0,1-6.2-6.12A6.2,6.2,0,0,1,133.78,388.4Zm-5.28,18.44h10.56v41.32H128.5Zm41.16,11.48a8.54,8.54,0,0,0-5.12-1.84c-4.29,0-6.74,2.75-6.74,8.8v22.88H147.32V406.84h10v6c2.15-4.67,5.44-6.35,9.87-6.35a12.49,12.49,0,0,1,7,2.14Zm4.36,9.41c0-11.86,8.8-21.73,21.28-21.73s21.19,8.8,21.19,21v4.36H184.35c1.15,5.2,5.21,8.65,11.4,8.65A11.09,11.09,0,0,0,206,433.93l8.8,5.28c-4.36,6.42-10.56,9.79-19.36,9.79C182.06,449,174,440.05,174,427.73Zm10.49-4.67h21.73c-1.15-5.28-5.44-8.19-11-8.19A10.61,10.61,0,0,0,184.51,423.06Zm34.58-16.22h7.42v-2.07c0-11.24,4.75-15.91,15.15-15.91h3.68V398h-3c-4.89,0-6,1.69-6,6.81v2.07h9v9.49h-8.73v31.83h-10.1V416.33h-7.42Zm28.24,20.66A21.15,21.15,0,0,1,268.9,406a21.5,21.5,0,1,1,0,43C256.05,449,247.33,439.59,247.33,427.5Zm32.9,0a11.35,11.35,0,0,0-11.33-11.71c-6.5,0-11.32,5.13-11.32,11.71s4.82,11.71,11.32,11.71A11.35,11.35,0,0,0,280.23,427.5Zm24.48-.46-14.92-20.2h12.4l8.8,12.7,9-12.7h12.16L317,427,333,448.16H320.63l-9.87-13.47-9.57,13.47H288.88Z"/><path class="cls-3" d="M319.81,111.49c-25.31-33.25-64.76-54-106.25-54.8-32.51-.64-55,9.1-67.67,16.94,17-9.84,41.6-15.42,63.14-15.14,55.41.7,114.91,38.34,123.75,106.19,10.14,77.89-44.23,142.89-120.73,143.09-84.16.21-135.34-74.13-122-140.9.67-3.33.33-6.58,1.45-9.73.63-11.74,5.08-30.14,14.67-48.94-9.69,5-22,20.82-28.12,35.48-8.79,21.13-11.88,46.4-9.1,70.44.21,1.81.4,3.62.64,5.41a140.2,140.2,0,1,0,250.18-108ZM97.92,123.66Z"/><g class="cls-4"><path class="cls-5" d="M319.81,111.49c-25.31-33.25-64.76-54-106.25-54.8-32.51-.64-55,9.1-67.67,16.94,17-9.84,41.6-15.42,63.14-15.14,55.41.7,114.91,38.34,123.75,106.19,10.14,77.89-44.23,142.89-120.73,143.09-84.16.21-135.34-74.13-122-140.9.67-3.33.33-6.58,1.45-9.73.63-11.74,5.08-30.14,14.67-48.94-9.69,5-22,20.82-28.12,35.48-8.79,21.13-11.88,46.4-9.1,70.44.21,1.81.4,3.62.64,5.41a140.2,140.2,0,1,0,250.18-108ZM97.92,123.66Z"/></g><path class="cls-6" d="M319.81,111.49c-25.31-33.25-64.76-54-106.25-54.8-32.51-.64-55,9.1-67.67,16.94,17-9.84,41.6-15.42,63.14-15.14,55.41.7,114.91,38.34,123.75,106.19,10.14,77.89-44.23,142.89-120.73,143.09-84.16.21-135.34-74.13-122-140.9.67-3.33.33-6.58,1.45-9.73.63-11.74,5.08-30.14,14.67-48.94-9.69,5-22,20.82-28.12,35.48-8.79,21.13-11.88,46.4-9.1,70.44.21,1.81.4,3.62.64,5.41a140.2,140.2,0,1,0,250.18-108ZM97.92,123.66Z"/><path class="cls-7" d="M319.81,111.49c-25.31-33.25-64.76-54-106.25-54.8-32.51-.64-55,9.1-67.67,16.94,17-9.84,41.6-15.42,63.14-15.14,55.41.7,114.91,38.34,123.75,106.19,10.14,77.89-44.23,142.89-120.73,143.09-84.16.21-135.34-74.13-122-140.9.67-3.33.33-6.58,1.45-9.73.63-11.74,5.08-30.14,14.67-48.94-9.69,5-22,20.82-28.12,35.48-8.79,21.13-11.88,46.4-9.1,70.44.21,1.81.4,3.62.64,5.41a140.2,140.2,0,1,0,250.18-108ZM97.92,123.66Z"/><path class="cls-8" d="M319.81,111.49c-25.31-33.25-64.76-54-106.25-54.8-32.51-.64-55,9.1-67.67,16.94,17-9.84,41.6-15.42,63.14-15.14,55.41.7,114.91,38.34,123.75,106.19,10.14,77.89-44.23,142.89-120.73,143.09-84.16.21-135.34-74.13-122-140.9.67-3.33.33-6.58,1.45-9.73.63-11.74,5.08-30.14,14.67-48.94-9.69,5-22,20.82-28.12,35.48-8.79,21.13-11.88,46.4-9.1,70.44.21,1.81.4,3.62.64,5.41a140.2,140.2,0,1,0,250.18-108ZM97.92,123.66Z"/><path class="cls-9" d="M332.78,164.68a142.39,142.39,0,0,1,1.05,25.3c4.65-.68,9.3-1.31,14-1.85a139.5,139.5,0,0,0-28-76.64c-25.31-33.25-64.76-54-106.25-54.8-32.51-.64-55,9.1-67.67,16.94,17-9.84,41.6-15.42,63.14-15.14C264.44,59.19,323.94,96.83,332.78,164.68Z"/><path class="cls-10" d="M336.19,160.81C328.31,89.9,264.92,58,209,58.49c-21.54.17-46.14,5.3-63.14,15.14a69.56,69.56,0,0,0-12.46,9.43c.45-.37,1.8-1.48,4-3l.22-.16.2-.13A93.31,93.31,0,0,1,164.8,67.3c14.77-4.32,30.76-5.77,46.14-5.38,63.21,3.63,107.82,56,109.37,111.69,1.29,46.11-36.54,82.89-80.15,85-31.72,1.54-61.6-13.77-76.2-44.4a75.69,75.69,0,0,1-6.87-22.11c-6.92-46.61,24.46-86.37,53.24-96.21C194.8,82.38,155.91,83.3,127,104.55c-20.85,15.3-34.37,38.58-38.85,66.35-3.42,21.18-.2,43.2,8.19,62.86a123.53,123.53,0,0,0,105.31,74.86c3.47.26,7,.39,10.44.39C304.67,309,344.86,238.87,336.19,160.81Z"/><path class="cls-11" d="M336.19,160.81C328.31,89.9,264.92,58,209,58.49c-21.54.17-46.14,5.3-63.14,15.14a69.56,69.56,0,0,0-12.46,9.43c.45-.37,1.8-1.48,4-3l.22-.16.2-.13A93.31,93.31,0,0,1,164.8,67.3c14.77-4.32,30.76-5.77,46.14-5.38,63.21,3.63,107.82,56,109.37,111.69,1.29,46.11-36.54,82.89-80.15,85-31.72,1.54-61.6-13.77-76.2-44.4a75.69,75.69,0,0,1-6.87-22.11c-6.92-46.61,24.46-86.37,53.24-96.21C194.8,82.38,155.91,83.3,127,104.55c-20.85,15.3-34.37,38.58-38.85,66.35-3.42,21.18-.2,43.2,8.19,62.86a123.53,123.53,0,0,0,105.31,74.86c3.47.26,7,.39,10.44.39C304.67,309,344.86,238.87,336.19,160.81Z"/><path class="cls-12" d="M336.19,160.81C328.31,89.9,264.92,58,209,58.49c-21.54.17-46.14,5.3-63.14,15.14a69.56,69.56,0,0,0-12.46,9.43c.45-.37,1.8-1.48,4-3l.22-.16.2-.13A93.31,93.31,0,0,1,164.8,67.3c14.77-4.32,30.76-5.77,46.14-5.38,63.21,3.63,107.82,56,109.37,111.69,1.29,46.11-36.54,82.89-80.15,85-31.72,1.54-61.6-13.77-76.2-44.4a75.69,75.69,0,0,1-6.87-22.11c-6.92-46.61,24.46-86.37,53.24-96.21C194.8,82.38,155.91,83.3,127,104.55c-20.85,15.3-34.37,38.58-38.85,66.35-3.42,21.18-.2,43.2,8.19,62.86a123.53,123.53,0,0,0,105.31,74.86c3.47.26,7,.39,10.44.39C304.67,309,344.86,238.87,336.19,160.81Z"/><path class="cls-13" d="M336.19,160.81C328.31,89.9,264.92,58,209,58.49c-21.54.17-46.14,5.3-63.14,15.14a69.56,69.56,0,0,0-12.46,9.43c.45-.37,1.8-1.48,4-3l.22-.16.2-.13A93.31,93.31,0,0,1,164.8,67.3c14.77-4.32,30.76-5.77,46.14-5.38,63.21,3.63,107.82,56,109.37,111.69,1.29,46.11-36.54,82.89-80.15,85-31.72,1.54-61.6-13.77-76.2-44.4a75.69,75.69,0,0,1-6.87-22.11c-6.92-46.61,24.46-86.37,53.24-96.21C194.8,82.38,155.91,83.3,127,104.55c-20.85,15.3-34.37,38.58-38.85,66.35-3.42,21.18-.2,43.2,8.19,62.86a123.53,123.53,0,0,0,105.31,74.86c3.47.26,7,.39,10.44.39C304.67,309,344.86,238.87,336.19,160.81Z"/><path class="cls-14" d="M240.16,258.63c59.86-3.64,85.47-53.07,87.07-88.15,2.51-54.8-30.08-113.89-116.29-108.56-15.38-.39-31.37,1.06-46.14,5.38a101.08,101.08,0,0,0-26.92,12.47l-.2.13-.22.16q-2,1.39-3.93,2.94c2.4-1.64,32.13-19.16,73.43-13.75,49.49,6.48,94.74,44.9,94.74,95.58,0,39-30.21,68.77-65.58,66.65-52.55-3.16-65.79-56.92-38.46-80.15-7.37-1.59-21.23,1.52-30.87,15.9-8.66,12.91-8.17,32.86-2.83,47C178.56,244.86,208.46,260.55,240.16,258.63Z"/><path class="cls-15" d="M319.8,111.49a139.38,139.38,0,0,0-12.18-13.91A111.75,111.75,0,0,0,296.5,87.36,88.75,88.75,0,0,1,303,93.61a78.55,78.55,0,0,1,17.09,28.44c7.31,22.1,6.83,49.76-7.13,71.48-16.63,25.88-43.72,38.66-73,38-1.27,0-2.54,0-3.82-.09-52.55-3.16-65.79-56.92-38.46-80.15-7.37-1.59-21.23,1.52-30.87,15.9-8.66,12.91-8.17,32.86-2.83,47a75.69,75.69,0,0,1-6.87-22.11c-6.92-46.61,24.46-86.37,53.24-96.21C194.8,82.38,155.91,83.3,127,104.55c-16.87,12.38-28.94,30-35.31,51,.94-11.78,5.4-29.36,14.56-47.32-9.69,5-22,20.82-28.12,35.48-8.79,21.13-11.88,46.4-9.1,70.44.21,1.81.4,3.62.64,5.41a140.19,140.19,0,1,0,250.17-108Z"/><path class="cls-16" d="M320.05,122.05A78.39,78.39,0,0,0,303,93.61c-8.93-9.64-20.06-17-31.83-22.67a142.12,142.12,0,0,0-31.29-11.06,139.61,139.61,0,0,0-58-.34C162,63.72,144.49,72.31,133.43,83.05c8.29-5,19.86-9.11,28.1-11.19,38.26-9.64,80.39.8,109.11,28.28a94.59,94.59,0,0,1,15.15,18.52c17.13,27.79,15.51,62.73,2.15,83.33-9.92,15.31-31.17,29.67-51,29.51,30.42,1.59,58.79-11.2,76-38C326.89,171.81,327.37,144.15,320.05,122.05Z"/><path class="cls-17" d="M320.05,122.05A78.39,78.39,0,0,0,303,93.61c-8.93-9.64-20.06-17-31.83-22.67a142.12,142.12,0,0,0-31.29-11.06,139.61,139.61,0,0,0-58-.34C162,63.72,144.49,72.31,133.43,83.05c8.29-5,19.86-9.11,28.1-11.19,38.26-9.64,80.39.8,109.11,28.28a94.59,94.59,0,0,1,15.15,18.52c17.13,27.79,15.51,62.73,2.15,83.33-9.92,15.31-31.17,29.67-51,29.51,30.42,1.59,58.79-11.2,76-38C326.89,171.81,327.37,144.15,320.05,122.05Z"/></g></g></svg>