<svg width="24" height="24" viewBox="0 0 24 24" fill="none" xmlns="http://www.w3.org/2000/svg">
<g id="Icons / get-involved">
<g id="line">
<path id="Path 41" d="M18 16C18 16 20 17.5 21 21" stroke="black" stroke-width="2" stroke-linecap="round"/>
<path id="Path 40" d="M16 11C16 11 19 10 19 7C19 4 16 3 16 3" stroke="black" stroke-width="2" stroke-linecap="round"/>
<path id="Path 39" d="M2 21C2 21 3.5 15 9 15C14.5 15 16 21 16 21" stroke="black" stroke-width="2" stroke-linecap="round"/>
<path id="Oval" fill-rule="evenodd" clip-rule="evenodd" d="M9 11C11.2091 11 13 9.20914 13 7C13 4.79086 11.2091 3 9 3C6.79086 3 5 4.79086 5 7C5 9.20914 6.79086 11 9 11Z" stroke="black" stroke-width="2"/>
</g>
</g>
</svg>