<svg fill="none" xmlns="http://www.w3.org/2000/svg" viewBox="0 0 16 16">
  <path d="M7.625.5c-.98491 0-1.96018.193993-2.87013.5709-.90994.37691-1.73673.92936-2.43317 1.6258S1.07281 4.21993.695904 5.12987C.318993 6.03982.125 7.01509.125 8c0 .98491.193993 1.96018.570904 2.8701.376906.91.929356 1.7368 1.625796 2.4332.69644.6964 1.52323 1.2489 2.43317 1.6258.90995.3769 1.88522.5709 2.87013.5709 1.98912 0 3.8968-.7902 5.3033-2.1967C14.3348 11.8968 15.125 9.98912 15.125 8c0-1.98912-.7902-3.89678-2.1967-5.3033C11.5218 1.29018 9.61412.5 7.625.5Zm.625 10.875c0 .1658-.06585.3247-.18306.4419-.11721.1173-.27618.1831-.44194.1831-.16576 0-.32473-.0658-.44194-.1831C7.06585 11.6997 7 11.5408 7 11.375V6.938c0-.16576.06585-.32473.18306-.44194.11721-.11721.27618-.18306.44194-.18306.16576 0 .32473.06585.44194.18306.11721.11721.18306.27618.18306.44194v4.437ZM8.25 5 8 5.25h-.75L7 5v-.75L7.25 4H8l.25.25V5Z" fill="#0090ED"/>
</svg>
