<svg fill="none" xmlns="http://www.w3.org/2000/svg" viewBox="0 0 16 8">
  <path d="M15.375 3H7.858c-.447-1.721-2-3-3.858-3-2.206 0-4 1.794-4 4s1.794 4 4 4c2.12 0 3.843-1.662 3.975-3.75h4.9V6.5c0 .16576.0658.32473.1831.44194.1172.11721.2761.18306.4419.18306s.3247-.06585.4419-.18306c.1173-.11721.1831-.27618.1831-.44194V4.25h1.25c.1658 0 .3247-.06585.4419-.18306.1173-.11721.1831-.27618.1831-.44194 0-.16576-.0658-.32473-.1831-.44194C15.6997 3.06585 15.5408 3 15.375 3ZM4 6.75C2.483 6.75 1.25 5.517 1.25 4S2.483 1.25 4 1.25 6.75 2.483 6.75 4 5.517 6.75 4 6.75Z" fill="#000"/>
</svg>
