<svg width="24" height="24" viewBox="0 0 24 24" fill="none" xmlns="http://www.w3.org/2000/svg">
    <path d="M12 0C10.4241 -2.34822e-08 8.86371 0.310389 7.4078 0.913445C5.95189 1.5165 4.62902 2.40042 3.51472 3.51472C2.40042 4.62902 1.5165 5.95189 0.913446 7.4078C0.310389 8.86371 0 10.4241 0 12C0 13.5759 0.310389 15.1363 0.913446 16.5922C1.5165 18.0481 2.40042 19.371 3.51472 20.4853C4.62902 21.5996 5.95189 22.4835 7.4078 23.0866C8.86371 23.6896 10.4241 24 12 24C15.1826 24 18.2348 22.7357 20.4853 20.4853C22.7357 18.2348 24 15.1826 24 12C24 8.8174 22.7357 5.76516 20.4853 3.51472C18.2348 1.26428 15.1826 4.74244e-08 12 0ZM10.12 16.8L5.8928 12.5712C5.70545 12.3834 5.60037 12.1289 5.60067 11.8637C5.60097 11.5984 5.70663 11.3441 5.8944 11.1568C6.08217 10.9695 6.33668 10.8644 6.60193 10.8647C6.86718 10.865 7.12145 10.9706 7.3088 11.1584L10.6224 14.4736L16.6928 8.4016C16.8822 8.22179 17.1343 8.12306 17.3954 8.12645C17.6565 8.12984 17.906 8.23507 18.0907 8.41973C18.2753 8.60438 18.3806 8.85386 18.384 9.11498C18.3873 9.3761 18.2886 9.62822 18.1088 9.8176L11.1248 16.8H10.12Z" fill="#2AC3A2"/>
</svg>
