<?xml version="1.0" encoding="UTF-8" standalone="no"?>
<svg
   xmlns:dc="http://purl.org/dc/elements/1.1/"
   xmlns:cc="http://creativecommons.org/ns#"
   xmlns:rdf="http://www.w3.org/1999/02/22-rdf-syntax-ns#"
   xmlns:svg="http://www.w3.org/2000/svg"
   xmlns="http://www.w3.org/2000/svg"
   xmlns:sodipodi="http://sodipodi.sourceforge.net/DTD/sodipodi-0.dtd"
   xmlns:inkscape="http://www.inkscape.org/namespaces/inkscape"
   viewBox="0 0 409.99999 22"
   version="1.1"
   id="svg66"
   sodipodi:docname="markup.svg"
   inkscape:version="0.92.4 5da689c313, 2019-01-14"
   width="410"
   height="22">
  <metadata
     id="metadata72">
    <rdf:RDF>
      <cc:Work
         rdf:about="">
        <dc:format>image/svg+xml</dc:format>
        <dc:type
           rdf:resource="http://purl.org/dc/dcmitype/StillImage" />
        <dc:title>markup</dc:title>
      </cc:Work>
    </rdf:RDF>
  </metadata>
  <defs
     id="defs70" />
  <sodipodi:namedview
     pagecolor="#ffffff"
     bordercolor="#666666"
     borderopacity="1"
     objecttolerance="10"
     gridtolerance="10"
     guidetolerance="10"
     inkscape:pageopacity="0"
     inkscape:pageshadow="2"
     inkscape:window-width="1557"
     inkscape:window-height="784"
     id="namedview68"
     showgrid="true"
     inkscape:zoom="1.245446"
     inkscape:cx="373.23534"
     inkscape:cy="30.860277"
     inkscape:window-x="1321"
     inkscape:window-y="283"
     inkscape:window-maximized="0"
     inkscape:current-layer="svg66" />
  <title
     id="title2">markup</title>
  <g
     id="g8">
    <path
       d="m 8.58,6 v 9.71 H 6.5 v -4 H 2.08 v 4 H 0 V 6 H 2.08 V 9.82 H 6.5 V 6 Z"
       id="path4"
       inkscape:connector-curvature="0" />
    <path
       d="M 12.22,8.4 10.57,9.4 9.74,8 12.65,6 h 1.67 v 9.71 h -2.1 z"
       id="path6"
       inkscape:connector-curvature="0" />
  </g>
  <g
     id="g14">
    <path
       d="m 52.51,6 v 9.71 h -2.08 v -4 H 46 v 4 H 43.93 V 6 H 46 v 3.82 h 4.42 V 6 Z"
       id="path10"
       inkscape:connector-curvature="0" />
    <path
       d="m 54.09,14 3.58,-2.77 C 58.83,10.33 59.2,9.7 59.2,9 A 1.34,1.34 0 0 0 57.73,7.71 3.1,3.1 0 0 0 55.35,9 L 54,7.73 a 4.61,4.61 0 0 1 3.76,-1.89 c 2.07,0 3.56,1.27 3.56,3.09 0,1.3 -0.56,2.31 -2.26,3.54 l -1.76,1.37 h 4.11 v 1.88 h -7.32 z"
       id="path12"
       inkscape:connector-curvature="0" />
  </g>
  <g
     id="g20">
    <path
       d="m 96.53,6 v 9.71 h -2.08 v -4 H 90 v 4 H 88 V 6 h 2 v 3.82 h 4.42 V 6 Z"
       id="path16"
       inkscape:connector-curvature="0" />
    <path
       d="m 97.86,14.26 1.23,-1.38 a 3.47,3.47 0 0 0 2.57,1.12 c 1.07,0 1.69,-0.49 1.69,-1.19 0,-0.7 -0.58,-1.13 -1.89,-1.11 h -1.12 V 9.94 h 1.12 c 1.06,0 1.69,-0.39 1.69,-1.09 0,-0.7 -0.66,-1.16 -1.62,-1.16 A 3.13,3.13 0 0 0 99.24,8.83 L 98,7.56 a 4.57,4.57 0 0 1 3.69,-1.72 c 2.19,0 3.56,1.12 3.56,2.66 a 2.33,2.33 0 0 1 -1.82,2.23 2.36,2.36 0 0 1 2,2.27 c 0,1.69 -1.48,2.9 -3.74,2.9 a 5,5 0 0 1 -3.83,-1.64 z"
       id="path18"
       inkscape:connector-curvature="0" />
  </g>
  <path
     d="m 133.67,2.3 h 8.53 c 3,0 5.12,1.68 5.12,4 a 3.84,3.84 0 0 1 -2.19,3.55 4.38,4.38 0 0 1 2.93,4 c 0,2.54 -2.31,4.27 -5.53,4.27 h -8.86 z m 7.45,6.15 c 0.92,0 1.59,-0.5 1.59,-1.19 0,-0.69 -0.67,-1.2 -1.59,-1.2 h -3 v 2.39 z m 0.67,5.93 c 1,0 1.66,-0.53 1.66,-1.27 0,-0.74 -0.69,-1.27 -1.66,-1.27 h -3.67 v 2.54 z"
     id="path22"
     inkscape:connector-curvature="0" />
  <path
     d="m 183.48,6.64 h 3.13 l -2.32,11.08 h -3.13 z M 184,3.55 a 1.91,1.91 0 0 1 1.87,-1.84 1.51,1.51 0 0 1 1.52,1.56 1.91,1.91 0 0 1 -1.8,1.85 A 1.54,1.54 0 0 1 184,3.55 Z"
     id="path24"
     inkscape:connector-curvature="0" />
  <g
     id="g32">
    <rect
       x="218.44"
       y="1"
       width="20"
       height="20"
       rx="2"
       id="rect26"
       style="fill:none;stroke:#000000;stroke-width:2" />
    <circle
       cx="224.44"
       cy="7"
       r="2"
       id="circle28" />
    <path
       d="M 219.44,20 229.53,9.91 a 2,2 0 0 1 2.82,0 l 6.09,6.09"
       id="path30"
       inkscape:connector-curvature="0"
       style="fill:none;stroke:#000000;stroke-width:2;stroke-linecap:round;stroke-linejoin:round" />
  </g>
  <g
     id="g38">
    <path
       d="m 274.46,12 a 5,5 0 0 1 -3.65,2 4.94,4.94 0 0 1 -3.89,-1.45 l -3,-3 A 5.006316,5.006316 0 0 1 271,2.47 l 1.72,1.71"
       id="path34"
       inkscape:connector-curvature="0"
       style="fill:none;stroke:#000000;stroke-width:2;stroke-linecap:round;stroke-linejoin:round" />
    <path
       d="M 270.46,10 A 5,5 0 0 1 278,9.46 l 3,3 a 5,5 0 0 1 -7.07,7.07 l -1.71,-1.71"
       id="path36"
       inkscape:connector-curvature="0"
       style="fill:none;stroke:#000000;stroke-width:2;stroke-linecap:round;stroke-linejoin:round" />
  </g>
  <g
     id="g4841">
    <line
       style="fill:none;stroke:#000000;stroke-width:2;stroke-linecap:round;stroke-linejoin:round"
       id="line40"
       y2="5"
       x2="324.12"
       y1="5"
       x1="314" />
    <line
       style="fill:none;stroke:#000000;stroke-width:2;stroke-linecap:round;stroke-linejoin:round"
       id="line42"
       y2="10.72"
       x2="324.12"
       y1="10.72"
       x1="314" />
    <line
       style="fill:none;stroke:#000000;stroke-width:2;stroke-linecap:round;stroke-linejoin:round"
       id="line44"
       y2="16.440001"
       x2="324.12"
       y1="16.440001"
       x1="314" />
    <path
       inkscape:connector-curvature="0"
       id="path52"
       d="m 308.62,4.1 -0.79,0.49 -0.4,-0.7 1.39,-0.89 h 0.79 v 4.6 h -1 z" />
    <path
       inkscape:connector-curvature="0"
       id="path54"
       d="m 307.46,12.53 1.71,-1.32 c 0.55,-0.44 0.73,-0.74 0.73,-1.07 a 0.65,0.65 0 0 0 -0.71,-0.61 1.49,1.49 0 0 0 -1.13,0.61 l -0.63,-0.61 a 2.18,2.18 0 0 1 1.79,-0.91 1.54,1.54 0 0 1 1.7,1.48 c 0,0.62 -0.27,1.1 -1.08,1.69 L 309,12.45 h 2 v 0.89 h -3.5 z" />
    <path
       inkscape:connector-curvature="0"
       id="path56"
       d="m 307.34,18.39 0.59,-0.66 a 1.66,1.66 0 0 0 1.22,0.55 c 0.52,0 0.81,-0.24 0.81,-0.57 0,-0.33 -0.27,-0.54 -0.9,-0.53 h -0.53 v -0.85 h 0.53 c 0.51,0 0.81,-0.18 0.81,-0.51 0,-0.33 -0.32,-0.56 -0.78,-0.56 A 1.5,1.5 0 0 0 308,15.8 l -0.57,-0.61 a 2.17,2.17 0 0 1 1.76,-0.82 c 1,0 1.7,0.53 1.7,1.27 a 1.12,1.12 0 0 1 -0.87,1.07 1.12,1.12 0 0 1 1,1.08 c 0,0.81 -0.71,1.39 -1.79,1.39 a 2.37,2.37 0 0 1 -1.89,-0.79 z" />
  </g>
  <g
     id="g4833">
    <line
       style="fill:none;stroke:#000000;stroke-width:2;stroke-linecap:round;stroke-linejoin:round"
       id="line46"
       y2="5"
       x2="368.04001"
       y1="5"
       x1="357.91" />
    <line
       style="fill:none;stroke:#000000;stroke-width:2;stroke-linecap:round;stroke-linejoin:round"
       id="line48"
       y2="10.72"
       x2="368.04001"
       y1="10.72"
       x1="357.91" />
    <line
       style="fill:none;stroke:#000000;stroke-width:2;stroke-linecap:round;stroke-linejoin:round"
       id="line50"
       y2="16.440001"
       x2="368.04001"
       y1="16.440001"
       x1="357.91" />
    <circle
       id="circle58"
       r="2"
       cy="5"
       cx="352.69" />
    <circle
       id="circle60"
       r="2"
       cy="16.030001"
       cx="352.69" />
    <circle
       id="circle62"
       r="2"
       cy="10.5"
       cx="352.69" />
  </g>
  <g
     aria-label="”“"
     style="font-style:normal;font-variant:normal;font-weight:normal;font-stretch:normal;font-size:40px;line-height:1.25;font-family:'Open Sans';-inkscape-font-specification:'Open Sans';letter-spacing:0px;word-spacing:0px;fill:#000000;fill-opacity:1;stroke:none"
     id="text4706"
     transform="matrix(0.81481481,0,0,0.81481481,390,1.3e-7)">
    <path
       d="m 4.6424874,21.459413 q 0,0.898099 -0.2487047,1.740933 -0.2487046,0.842832 -0.8151987,1.561312 -0.5526771,0.71848 -1.4369603,1.29879 Q 1.2711573,26.626942 0,27 v -1.188256 q 1.3955095,-0.442141 2.044905,-1.07772 0.6493956,-0.635578 0.6493956,-1.464594 0,-0.276339 -0.1519856,-0.455958 Q 2.3903282,22.620034 2.1554405,22.481866 1.9205528,22.329878 1.6580312,22.191709 1.3955095,22.053541 1.1606218,21.860104 0.92573408,21.666666 0.77374789,21.390328 0.62176165,21.100173 0.62176165,20.671848 q 0,-0.8152 0.52504325,-1.243525 Q 1.685665,19 2.4732298,19 q 0.4421417,0 0.8290156,0.165803 0.386874,0.151984 0.6908464,0.469775 0.3039724,0.303972 0.4697756,0.773748 0.17962,0.455959 0.17962,1.050087 z m 5.6649396,0 q 0,0.898099 -0.248705,1.740933 -0.2487044,0.842832 -0.815198,1.561312 -0.5526776,0.71848 -1.4369606,1.29879 Q 6.9360971,26.626942 5.6649398,27 v -1.188256 q 1.3816927,-0.442141 2.0310882,-1.07772 0.6632128,-0.635578 0.6632128,-1.464594 0,-0.276339 -0.1519872,-0.455958 Q 8.0552688,22.620034 7.8203808,22.481866 7.5854925,22.329878 7.3229715,22.191709 7.0604494,22.053541 6.8255618,21.860104 6.5906739,21.666666 6.4386878,21.390328 6.2867022,21.100173 6.2867022,20.671848 q 0,-0.8152 0.5250432,-1.243525 Q 7.3367882,19 8.1243528,19 q 0.4421416,0 0.829016,0.165803 0.4006904,0.151984 0.6908456,0.469775 0.3039728,0.303972 0.4835926,0.773748 0.17962,0.455959 0.17962,1.050087 z"
       style="font-style:normal;font-variant:normal;font-weight:normal;font-stretch:normal;font-family:'Droid Serif';-inkscape-font-specification:'Droid Serif';stroke-width:0.70742667"
       id="path4708"
       inkscape:connector-curvature="0" />
    <path
       d="m 19.357513,5.540587 q 0,-0.8981 0.248705,-1.7409323 Q 19.854923,2.9568224 20.4076,2.2383423 20.974093,1.5198622 21.858377,0.9533677 22.74266,0.3730572 24,0 v 1.188256 q -1.381692,0.4421416 -2.031088,1.0777198 -0.649395,0.6355789 -0.649395,1.4645945 0,0.2763385 0.151986,0.4697751 0.151986,0.1796198 0.373057,0.3316062 0.234888,0.1381696 0.497409,0.2763385 0.276339,0.1381696 0.49741,0.3316062 0.234887,0.1934373 0.386874,0.4835926 0.151986,0.2763385 0.151986,0.7046634 0,0.815198 -0.525044,1.2435227 Q 22.328153,8 21.540588,8 21.112263,8 20.711572,7.848014 20.310881,7.682211 20.006909,7.378239 19.716754,7.0604491 19.537133,6.6044908 19.357513,6.1347149 19.357513,5.540587 Z m -5.651122,0 q 0,-0.8981 0.248704,-1.7409323 Q 14.2038,2.9568224 14.756477,2.2383423 15.322971,1.5198622 16.207254,0.9533677 17.091538,0.3730572 18.348878,0 v 1.188256 q -1.395509,0.4421416 -2.044905,1.0777198 -0.649396,0.6355789 -0.649396,1.4645945 0,0.2763385 0.151987,0.4697751 0.151986,0.1796198 0.386874,0.3316062 0.234887,0.1381696 0.497409,0.2763385 0.262522,0.1381696 0.497409,0.3316062 0.234888,0.1934373 0.386874,0.4835926 0.151987,0.2763385 0.151987,0.7046634 0,0.815198 -0.538861,1.2435227 Q 16.663213,8 15.875648,8 15.447323,8 15.046633,7.848014 14.659759,7.682211 14.355787,7.378239 14.051814,7.0604491 13.872194,6.6044908 13.706391,6.1347149 13.706391,5.540587 Z"
       style="font-style:normal;font-variant:normal;font-weight:normal;font-stretch:normal;font-family:'Droid Serif';-inkscape-font-specification:'Droid Serif';stroke-width:0.70742661"
       id="path4710"
       inkscape:connector-curvature="0" />
  </g>
</svg>
