<svg xmlns="http://www.w3.org/2000/svg" viewBox="0 0 369.04 22">
  <title>markup</title>
  <g id="Layer_2" data-name="Layer 2">
    <g id="Layer_1-2" data-name="Layer 1">
      <g>
        <path d="M8.58,6v9.71H6.5v-4H2.08v4H0V6H2.08V9.82H6.5V6Z"/>
        <path d="M12.22,8.4l-1.65,1L9.74,8,12.65,6h1.67v9.71h-2.1Z"/>
      </g>
      <g>
        <path d="M52.51,6v9.71H50.43v-4H46v4H43.93V6H46V9.82h4.42V6Z"/>
        <path d="M54.09,14l3.58-2.77C58.83,10.33,59.2,9.7,59.2,9a1.34,1.34,0,0,0-1.47-1.29A3.1,3.1,0,0,0,55.35,9L54,7.73a4.61,4.61,0,0,1,3.76-1.89c2.07,0,3.56,1.27,3.56,3.09,0,1.3-.56,2.31-2.26,3.54l-1.76,1.37h4.11v1.88H54.09Z"/>
      </g>
      <g>
        <path d="M96.53,6v9.71H94.45v-4H90v4H88V6H90V9.82h4.42V6Z"/>
        <path d="M97.86,14.26l1.23-1.38A3.47,3.47,0,0,0,101.66,14c1.07,0,1.69-.49,1.69-1.19s-.58-1.13-1.89-1.11h-1.12V9.94h1.12c1.06,0,1.69-.39,1.69-1.09s-.66-1.16-1.62-1.16a3.13,3.13,0,0,0-2.29,1.14L98,7.56a4.57,4.57,0,0,1,3.69-1.72c2.19,0,3.56,1.12,3.56,2.66a2.33,2.33,0,0,1-1.82,2.23,2.36,2.36,0,0,1,2,2.27c0,1.69-1.48,2.9-3.74,2.9A5,5,0,0,1,97.86,14.26Z"/>
      </g>
      <path d="M133.67,2.3h8.53c3,0,5.12,1.68,5.12,4a3.84,3.84,0,0,1-2.19,3.55,4.38,4.38,0,0,1,2.93,4c0,2.54-2.31,4.27-5.53,4.27h-8.86Zm7.45,6.15c.92,0,1.59-.5,1.59-1.19s-.67-1.2-1.59-1.2h-3V8.45Zm.67,5.93c1,0,1.66-.53,1.66-1.27s-.69-1.27-1.66-1.27h-3.67v2.54Z"/>
      <path d="M183.48,6.64h3.13l-2.32,11.08h-3.13ZM184,3.55a1.91,1.91,0,0,1,1.87-1.84,1.51,1.51,0,0,1,1.52,1.56,1.91,1.91,0,0,1-1.8,1.85A1.54,1.54,0,0,1,184,3.55Z"/>
      <g>
        <rect x="218.44" y="1" width="20" height="20" rx="2" fill="none" stroke="#000" stroke-width="2"/>
        <circle cx="224.44" cy="7" r="2"/>
        <path d="M219.44,20,229.53,9.91a2,2,0,0,1,2.82,0L238.44,16" fill="none" stroke="#000" stroke-linecap="round" stroke-linejoin="round" stroke-width="2"/>
      </g>
      <g>
        <path d="M274.46,12a5,5,0,0,1-3.65,2,4.94,4.94,0,0,1-3.89-1.45l-3-3A5,5,0,0,1,271,2.47l1.72,1.71" fill="none" stroke="#000" stroke-linecap="round" stroke-linejoin="round" stroke-width="2"/>
        <path d="M270.46,10A5,5,0,0,1,278,9.46l3,3a5,5,0,0,1-7.07,7.07l-1.71-1.71" fill="none" stroke="#000" stroke-linecap="round" stroke-linejoin="round" stroke-width="2"/>
      </g>
      <line x1="314" y1="5" x2="324.12" y2="5" fill="none" stroke="#000" stroke-linecap="round" stroke-linejoin="round" stroke-width="2"/>
      <line x1="314" y1="10.72" x2="324.12" y2="10.72" fill="none" stroke="#000" stroke-linecap="round" stroke-linejoin="round" stroke-width="2"/>
      <line x1="314" y1="16.44" x2="324.12" y2="16.44" fill="none" stroke="#000" stroke-linecap="round" stroke-linejoin="round" stroke-width="2"/>
      <line x1="357.91" y1="5" x2="368.04" y2="5" fill="none" stroke="#000" stroke-linecap="round" stroke-linejoin="round" stroke-width="2"/>
      <line x1="357.91" y1="10.72" x2="368.04" y2="10.72" fill="none" stroke="#000" stroke-linecap="round" stroke-linejoin="round" stroke-width="2"/>
      <line x1="357.91" y1="16.44" x2="368.04" y2="16.44" fill="none" stroke="#000" stroke-linecap="round" stroke-linejoin="round" stroke-width="2"/>
      <path d="M308.62,4.1l-.79.49-.4-.7L308.82,3h.79V7.6h-1Z"/>
      <path d="M307.46,12.53l1.71-1.32c.55-.44.73-.74.73-1.07a.65.65,0,0,0-.71-.61,1.49,1.49,0,0,0-1.13.61l-.63-.61a2.18,2.18,0,0,1,1.79-.91,1.54,1.54,0,0,1,1.7,1.48c0,.62-.27,1.1-1.08,1.69l-.84.66h2v.89h-3.5Z"/>
      <path d="M307.34,18.39l.59-.66a1.66,1.66,0,0,0,1.22.55c.52,0,.81-.24.81-.57s-.27-.54-.9-.53h-.53v-.85h.53c.51,0,.81-.18.81-.51s-.32-.56-.78-.56a1.5,1.5,0,0,0-1.09.54l-.57-.61a2.17,2.17,0,0,1,1.76-.82c1,0,1.7.53,1.7,1.27a1.12,1.12,0,0,1-.87,1.07,1.12,1.12,0,0,1,1,1.08c0,.81-.71,1.39-1.79,1.39A2.37,2.37,0,0,1,307.34,18.39Z"/>
      <circle cx="352.69" cy="5" r="2"/>
      <circle cx="352.69" cy="16.03" r="2"/>
      <circle cx="352.69" cy="10.5" r="2"/>
    </g>
  </g>
</svg>
