<svg width="47" height="43" viewBox="0 0 47 43" fill="none" xmlns="http://www.w3.org/2000/svg">
<path d="M45.9588 20.4509H39.8244C39.5698 20.4509 39.3256 20.552 39.1456 20.732C38.9656 20.9121 38.8644 21.1563 38.8644 21.4109C38.8644 21.6655 38.9656 21.9096 39.1456 22.0897C39.3256 22.2697 39.5698 22.3709 39.8244 22.3709H45.9588C46.2134 22.3709 46.4576 22.2697 46.6376 22.0897C46.8177 21.9096 46.9188 21.6655 46.9188 21.4109C46.9188 21.1563 46.8177 20.9121 46.6376 20.732C46.4576 20.552 46.2134 20.4509 45.9588 20.4509Z" fill="black"/>
<path d="M36.2627 0.161156C36.0513 0.0202405 35.7926 -0.0311005 35.5434 0.0183858C35.2941 0.0678721 35.0747 0.214149 34.9331 0.425156L30.8435 6.55956C30.773 6.66443 30.7239 6.7822 30.699 6.9061C30.6741 7.03 30.6739 7.1576 30.6984 7.28158C30.7229 7.40556 30.7717 7.52347 30.8419 7.62856C30.9121 7.73365 31.0024 7.82384 31.1075 7.89396C31.2662 7.99686 31.4512 8.05186 31.6403 8.05236C31.7988 8.05285 31.955 8.0141 32.0949 7.93956C32.2347 7.86502 32.354 7.757 32.4419 7.62516L36.5411 1.49076C36.6102 1.3852 36.6578 1.26705 36.6812 1.14308C36.7046 1.01911 36.7034 0.891735 36.6775 0.768251C36.6517 0.644765 36.6017 0.527588 36.5306 0.423418C36.4594 0.319248 36.3684 0.230129 36.2627 0.161156Z" fill="black"/>
<path d="M44.7012 8.60437C44.5596 8.39337 44.3402 8.24709 44.0909 8.1976C43.8417 8.14812 43.583 8.19946 43.3716 8.34038L37.2468 12.43C37.1344 12.4964 37.0367 12.5851 36.9598 12.6905C36.8828 12.796 36.8282 12.9161 36.7992 13.0434C36.7703 13.1707 36.7676 13.3025 36.7913 13.4309C36.815 13.5593 36.8647 13.6815 36.9373 13.79C37.0099 13.8985 37.1038 13.9911 37.2134 14.0621C37.3229 14.1331 37.4458 14.1809 37.5745 14.2028C37.7032 14.2247 37.8351 14.2201 37.9619 14.1892C38.0888 14.1584 38.208 14.102 38.3124 14.0236L44.4468 9.93398C44.6562 9.79092 44.8005 9.57078 44.8482 9.32165C44.8959 9.07252 44.843 8.81465 44.7012 8.60437Z" fill="black"/>
<path d="M24.3012 6.63157C24.2279 6.49761 24.1237 6.38307 23.9972 6.29746C23.8707 6.21186 23.7257 6.15765 23.5741 6.13934C23.4225 6.12104 23.2687 6.13916 23.1255 6.19221C22.9823 6.24526 22.8538 6.33171 22.7508 6.44437L0.253165 30.9868C0.136351 31.1139 0.0559716 31.2701 0.0204928 31.4391C-0.014986 31.608 -0.00425171 31.7834 0.0515653 31.9468L2.09636 38.0764C2.15995 38.2679 2.2823 38.4346 2.44602 38.5527C2.60975 38.6707 2.80652 38.7342 3.00837 38.734C3.08605 38.7337 3.16341 38.7241 3.23877 38.7052L10.2372 36.9532C10.2679 37.858 10.5005 38.7445 10.9181 39.5478C11.3357 40.3511 11.9277 41.0509 12.6506 41.5959C13.3736 42.1409 14.2093 42.5173 15.0965 42.6976C15.9837 42.8779 16.9 42.8575 17.7783 42.6379C18.6567 42.4183 19.4748 42.0051 20.1728 41.4285C20.8708 40.8519 21.431 40.1265 21.8125 39.3054C22.1939 38.4843 22.3869 37.5883 22.3773 36.683C22.3678 35.7777 22.1559 34.886 21.7572 34.0732L35.9652 30.5212C36.1069 30.4854 36.2385 30.4177 36.3501 30.3234C36.4617 30.229 36.5503 30.1104 36.6091 29.9766C36.6679 29.8428 36.6953 29.6973 36.6894 29.5513C36.6835 29.4053 36.6442 29.2625 36.5748 29.134L24.3012 6.63157ZM20.4612 36.7516C20.4245 37.8289 19.9708 38.85 19.1957 39.5992C18.4206 40.3484 17.3848 40.7671 16.3068 40.7671C15.2288 40.7671 14.1929 40.3484 13.4178 39.5992C12.6427 38.85 12.189 37.8289 12.1524 36.7516C12.1524 36.6604 12.1524 36.5644 12.1524 36.4732L19.8324 34.5532C20.2421 35.2131 20.4584 35.9748 20.4564 36.7516H20.4612ZM3.66117 36.6268L2.07717 31.87L23.2596 8.74357L34.2996 28.9708L3.66117 36.6268Z" fill="black"/>
</svg>
