<svg width="48" height="48" viewBox="0 0 48 48" fill="none" xmlns="http://www.w3.org/2000/svg">
<path d="M26.6688 6.20153H25.2768C21.8306 6.18942 18.4123 6.81936 15.1968 8.05913C7.5216 11.0399 2.6688 17.0927 2.6688 23.7311C2.67931 26.5233 3.51423 29.2501 5.0688 31.5695L0 43.3247L15.2016 39.4079C18.418 40.644 21.8359 41.2722 25.2816 41.2607H25.3392C33.9168 41.2799 41.76 37.5071 45.6 31.5695C47.1546 29.2501 47.9895 26.5233 48 23.7311V22.6991C47.3664 13.7999 38.1744 6.69113 26.6688 6.20153ZM46.08 23.7359C46.0621 26.1559 45.3344 28.5175 43.9872 30.5279C40.5264 35.8799 33.2064 39.3599 25.3296 39.3599H25.2768C22.071 39.3681 18.8912 38.7839 15.8976 37.6367C15.6756 37.5508 15.4396 37.5068 15.2016 37.5071C15.0399 37.5071 14.8787 37.5264 14.7216 37.5647L3.312 40.4879L6.8304 32.3279C6.95542 32.0367 7.00638 31.719 6.97874 31.4032C6.9511 31.0875 6.84572 30.7834 6.672 30.5183C5.32776 28.5088 4.60338 26.1487 4.5888 23.7311C4.5888 17.8607 8.9088 12.5423 15.8976 9.84473C18.8912 8.69756 22.071 8.11335 25.2768 8.12153H26.6256C37.128 8.58233 45.4752 14.8799 46.08 22.7711V23.7359Z" fill="black"/>
<path d="M14.6689 20.64C12.4561 20.64 10.6657 22.0224 10.6657 23.7312C10.6657 25.44 12.4561 26.8272 14.6689 26.8272C16.8817 26.8272 18.6673 25.44 18.6673 23.7312C18.6673 22.0224 16.8769 20.64 14.6689 20.64ZM14.6689 24.9072C13.3969 24.9072 12.5857 24.2112 12.5857 23.7312C12.5857 23.2512 13.3969 22.56 14.6689 22.56C15.9409 22.56 16.7473 23.2512 16.7473 23.7312C16.7473 24.2112 15.9361 24.9072 14.6689 24.9072Z" fill="black"/>
<path d="M25.3344 20.64C23.1264 20.64 21.3312 22.0224 21.3312 23.7312C21.3312 25.44 23.1264 26.8272 25.3344 26.8272C27.5424 26.8272 29.3328 25.44 29.3328 23.7312C29.3328 22.0224 27.5424 20.64 25.3344 20.64ZM25.3344 24.9072C24.0624 24.9072 23.2512 24.2112 23.2512 23.7312C23.2512 23.2512 24.0624 22.56 25.3344 22.56C26.6064 22.56 27.4128 23.2512 27.4128 23.7312C27.4128 24.2112 26.6016 24.9072 25.3344 24.9072Z" fill="black"/>
<path d="M36 20.64C33.792 20.64 32.0016 22.0224 32.0016 23.7312C32.0016 25.44 33.792 26.8272 36 26.8272C38.208 26.8272 39.9984 25.44 39.9984 23.7312C39.9984 22.0224 38.208 20.64 36 20.64ZM36 24.9072C34.728 24.9072 33.9216 24.2112 33.9216 23.7312C33.9216 23.2512 34.728 22.56 36 22.56C37.272 22.56 38.0784 23.2512 38.0784 23.7312C38.0784 24.2112 37.272 24.9072 36 24.9072Z" fill="black"/>
</svg>
