<?xml version="1.0" encoding="UTF-8"?>
<svg width="360px" height="104px" viewBox="0 0 360 104" version="1.1" xmlns="http://www.w3.org/2000/svg" xmlns:xlink="http://www.w3.org/1999/xlink">
    <!-- Generator: Sketch 47.1 (45422) - http://www.bohemiancoding.com/sketch -->
    <title>moz-logo-bw-rgb</title>
    <desc>Created with Sketch.</desc>
    <defs></defs>
    <g id="Page-1" stroke="none" stroke-width="1" fill="none" fill-rule="evenodd">
        <g id="moz-logo-bw-rgb" fill-rule="nonzero">
            <rect id="Rectangle-path" fill="#000000" x="0" y="0.8" width="360" height="102.9"></rect>
            <path d="M343.8,74.7 C343.1,74.9 342.5,75 341.9,75 C339.8,75 338.8,74.1 338.8,71.5 L338.8,52 C338.8,41.7 330.6,36.7 320.9,36.7 C313.5,36.7 309.5,37.6 301.6,40.8 L300,51.2 L310.3,52.3 L311.8,47.2 C313.9,46.1 316,45.9 318.7,45.9 C326,45.9 326.1,51.4 326.1,56 L326.1,57.5 C323.8,57.2 321.2,57.1 318.7,57.1 C308.4,57.1 297.7,59.7 297.7,70.8 C297.7,80.2 305.1,83.7 311.6,83.7 C318.9,83.7 323.5,79.3 326.1,74.7 C326.7,80.2 330,83.7 336,83.7 C338.8,83.7 341.7,82.9 344.1,81.6 L343.8,74.7 Z M316.2,74.4 C312.3,74.4 310.9,72.1 310.9,69.2 C310.9,64.3 314.9,63 319.5,63 C321.6,63 323.9,63.3 326,63.6 C325.7,71.1 320.8,74.4 316.2,74.4 Z M298.9,13.9 L279.4,82.6 L266.7,82.6 L286.2,13.9 L298.9,13.9 Z M272.7,13.9 L253.2,82.6 L240.5,82.6 L260,13.9 L272.7,13.9 Z M218.7,37.6 L232.2,37.6 L232.2,53.8 L218.7,53.8 L218.7,37.6 Z M218.7,66.5 L232.2,66.5 L232.2,82.7 L218.7,82.7 L218.7,66.5 Z M199,65.9 L209.2,66.9 L206.4,82.7 L167.1,82.7 L165.8,75.9 L190.6,47.4 L176.5,47.4 L174.5,54.4 L165.2,53.4 L166.8,37.6 L206.3,37.6 L207.3,44.4 L182.3,72.9 L196.9,72.9 L199,65.9 Z M134.5,36.7 C118.3,36.7 110.3,47.6 110.3,60.8 C110.3,75.2 119.9,83.7 133.8,83.7 C148.2,83.7 158.6,74.6 158.6,60.2 C158.6,47.6 150.7,36.7 134.5,36.7 Z M134.2,73.7 C127.2,73.7 123.6,67.7 123.6,59.9 C123.6,51.4 127.7,46.5 134.3,46.5 C140.4,46.5 145.3,50.6 145.3,59.7 C145.3,68.4 140.9,73.7 134.2,73.7 Z M98.7,72.8 L104.7,72.8 L104.7,82.6 L85.9,82.6 L85.9,57.3 C85.9,49.5 83.3,46.5 78.2,46.5 C72,46.5 69.5,50.9 69.5,57.2 L69.5,72.9 L75.5,72.9 L75.5,82.7 L56.6,82.7 L56.6,57.3 C56.6,49.5 54,46.5 48.9,46.5 C42.7,46.5 40.2,50.9 40.2,57.2 L40.2,72.9 L48.8,72.9 L48.8,82.7 L21.4,82.7 L21.4,72.9 L27.4,72.9 L27.4,47.4 L21.4,47.4 L21.4,37.6 L40.3,37.6 L40.3,44.4 C43,39.6 47.7,36.7 54,36.7 C60.5,36.7 66.5,39.8 68.7,46.4 C71.2,40.4 76.3,36.7 83.4,36.7 C91.5,36.7 98.9,41.6 98.9,52.3 L98.9,72.8 L98.7,72.8 Z" id="Shape" fill="#FFFFFF"></path>
        </g>
    </g>
</svg>
