<svg width="1558" height="884" viewBox="0 0 1558 884" fill="none" xmlns="http://www.w3.org/2000/svg">
<path d="M1339.74 674.08C1330.85 674.08 1324.02 671.696 1319.25 666.927C1314.7 662.158 1312.43 655.33 1312.43 646.443V500.453L1327.38 465.663H1356.32V642.216H1390.46V674.08H1339.74ZM1286.09 500.453H1390.46V532.318H1286.09V500.453Z" fill="black"/>
<path d="M1162.12 532.318H1143.26V500.454H1199.83V534.594H1210.24C1213.49 522.022 1218.58 512.809 1225.52 506.957C1232.67 500.887 1242.21 497.853 1254.13 497.853H1273.64V532.318H1235.6C1225.41 532.318 1217.82 535.244 1212.84 541.097C1208.07 546.733 1205.68 555.728 1205.68 568.084V674.081H1162.12V532.318Z" fill="black"/>
<path d="M1042.13 677.332C1024.58 677.332 1009.51 673.864 996.939 666.928C984.584 659.991 975.155 649.804 968.652 636.364C962.149 622.925 958.897 606.559 958.897 587.268C958.897 567.976 962.149 551.61 968.652 538.171C975.155 524.731 984.584 514.544 996.939 507.607C1009.51 500.671 1024.58 497.203 1042.13 497.203C1059.48 497.203 1074.32 500.671 1086.68 507.607C1099.25 514.544 1108.79 524.731 1115.29 538.171C1121.79 551.61 1125.05 567.976 1125.05 587.268C1125.05 606.559 1121.79 622.925 1115.29 636.364C1108.79 649.804 1099.25 659.991 1086.68 666.928C1074.32 673.864 1059.48 677.332 1042.13 677.332ZM1042.13 643.192C1054.71 643.192 1063.92 639.724 1069.77 632.788C1075.62 625.635 1078.55 614.471 1078.55 599.298V575.237C1078.55 560.064 1075.62 549.009 1069.77 542.073C1063.92 534.919 1054.71 531.343 1042.13 531.343C1029.35 531.343 1020.02 534.919 1014.17 542.073C1008.32 549.009 1005.39 560.064 1005.39 575.237V599.298C1005.39 614.471 1008.32 625.635 1014.17 632.788C1020.02 639.724 1029.35 643.192 1042.13 643.192Z" fill="black"/>
<path d="M774.1 532.318H754.917V500.454H811.817V535.244H821.897C825.365 522.672 831.109 513.243 839.129 506.957C847.15 500.454 857.338 497.203 869.693 497.203C882.916 497.203 894.404 500.888 904.158 508.258C914.13 515.411 921.825 525.815 927.244 539.471C932.663 552.911 935.372 568.843 935.372 587.268C935.372 605.909 932.663 622.058 927.244 635.714C922.041 649.153 914.455 659.45 904.484 666.603C894.729 673.756 883.132 677.332 869.693 677.332C857.771 677.332 848.017 674.515 840.43 668.879C833.06 663.026 827.858 654.247 824.823 642.542H814.744C816.911 662.051 817.995 675.273 817.995 682.21V717H774.1V532.318ZM853.111 643.192C865.466 643.192 874.462 639.724 880.098 632.788C885.95 625.635 888.877 614.471 888.877 599.298V575.237C888.877 560.064 885.95 549.009 880.098 542.073C874.462 534.919 865.466 531.343 853.111 531.343C840.972 531.343 832.085 534.919 826.449 542.073C820.813 549.009 817.995 560.064 817.995 575.237V599.298C817.995 614.471 820.813 625.635 826.449 632.788C832.085 639.724 840.972 643.192 853.111 643.192Z" fill="black"/>
<path d="M578.899 532.318H559.716V500.454H616.616V535.244H626.696C630.164 522.672 635.908 513.243 643.928 506.957C651.949 500.454 662.136 497.203 674.492 497.203C687.715 497.203 699.203 500.888 708.957 508.258C718.928 515.411 726.624 525.815 732.043 539.471C737.462 552.911 740.171 568.843 740.171 587.268C740.171 605.909 737.462 622.058 732.043 635.714C726.84 649.153 719.254 659.45 709.282 666.603C699.528 673.756 687.931 677.332 674.492 677.332C662.57 677.332 652.816 674.515 645.229 668.879C637.859 663.026 632.657 654.247 629.622 642.542H619.542C621.71 662.051 622.794 675.273 622.794 682.21V717H578.899V532.318ZM657.91 643.192C670.265 643.192 679.261 639.724 684.897 632.788C690.749 625.635 693.675 614.471 693.675 599.298V575.237C693.675 560.064 690.749 549.009 684.897 542.073C679.261 534.919 670.265 531.343 657.91 531.343C645.771 531.343 636.884 534.919 631.248 542.073C625.612 549.009 622.794 560.064 622.794 575.237V599.298C622.794 614.471 625.612 625.635 631.248 632.788C636.884 639.724 645.771 643.192 657.91 643.192Z" fill="black"/>
<path d="M433.4 677.332C416.059 677.332 402.836 672.13 393.732 661.726C384.845 651.104 380.401 635.714 380.401 615.555V532.318H361.543V500.454H424.621V607.101C424.621 619.674 426.897 628.886 431.449 634.739C436.218 640.374 443.696 643.192 453.884 643.192C464.072 643.192 471.55 640.374 476.319 634.739C481.304 628.886 483.797 619.674 483.797 607.101V500.454H527.692V642.217H546.55V674.081H517.287C508.4 674.081 501.572 671.697 496.803 666.928C492.034 662.159 489.65 655.331 489.65 646.444V639.941H479.57C476.536 652.73 471.225 662.159 463.638 668.228C456.051 674.298 445.972 677.332 433.4 677.332Z" fill="black"/>
<path d="M256.49 677.332C237.415 677.332 221.592 674.514 209.019 668.878C196.447 663.243 186.693 654.464 179.756 642.542C173.037 630.62 168.81 615.013 167.076 595.721H212.271V604.175C212.271 616.53 215.847 625.959 223.001 632.462C230.154 638.748 241.317 641.892 256.49 641.892C270.147 641.892 280.551 639.616 287.704 635.064C295.074 630.512 298.759 623.9 298.759 615.23V610.353C298.759 604.066 296.592 598.973 292.256 595.071C287.921 591.169 280.66 588.134 270.472 585.967L225.927 575.887C205.985 571.119 191.462 563.857 182.357 554.103C173.47 544.348 169.027 531.017 169.027 514.11C169.027 492.217 176.397 475.526 191.136 464.038C205.876 452.333 227.336 446.48 255.515 446.48C274.373 446.48 289.98 449.298 302.336 454.934C314.908 460.57 324.554 469.348 331.274 481.27C338.21 493.192 342.545 508.799 344.28 528.091H299.084V519.637C299.084 507.282 295.508 497.961 288.355 491.675C281.418 485.172 270.472 481.921 255.515 481.921C242.076 481.921 231.78 484.197 224.626 488.749C217.69 493.301 214.222 499.912 214.222 508.583V513.46C214.222 519.963 216.281 525.165 220.399 529.067C224.735 532.752 231.888 535.678 241.859 537.845L286.729 547.925C306.671 552.91 321.194 560.28 330.298 570.035C339.402 579.572 343.954 592.795 343.954 609.702C343.954 631.595 336.476 648.394 321.519 660.1C306.563 671.588 284.886 677.332 256.49 677.332Z" fill="black"/>
<path d="M261.347 167L290.155 308.73H300.477L329.285 167H413.399V390.225H367.491V206.13H357.169L317.115 390.225H273.671L233.617 206.13H223.296V390.225H177.233V167H261.347ZM524.935 214.295C577.929 214.295 608.74 246.03 608.74 303.954C608.74 361.879 578.084 393.614 524.935 393.614C471.786 393.614 441.129 361.879 441.129 303.954C441.283 245.876 471.94 214.295 524.935 214.295ZM524.935 357.873C548.813 357.873 560.213 344.933 560.213 316.433V291.168C560.213 262.668 548.967 249.727 524.935 249.727C500.902 249.727 489.656 262.668 489.656 291.168V316.433C489.81 344.933 501.056 357.873 524.935 357.873ZM627.535 356.949L715.192 250.806H628.768V217.53H769.882V250.806L682.224 356.949H771.114V390.225H627.535V356.949ZM795.147 217.53H859.85V390.225H813.941V250.806H795.147V217.53ZM813.941 167H859.85V200.276H813.941V167ZM890.198 167H954.901V390.225H908.993V200.276H890.198V167ZM985.404 167H1050.11V390.225H1004.2V200.276H985.404V167ZM1148.7 214.295C1174.28 214.295 1191.07 226.927 1196 248.957H1206.32V217.53H1261.01V250.806H1242.21V356.949H1261.01V390.225H1234.82C1216.33 390.225 1206.32 380.211 1206.32 361.725V358.798H1196C1191.07 380.827 1174.28 393.46 1148.7 393.46C1108.34 393.46 1079.84 359.106 1079.84 303.8C1079.84 248.495 1108.34 214.295 1148.7 214.295ZM1162.26 357.873C1185.52 357.873 1196.15 344.933 1196.15 316.433V291.168C1196.15 262.668 1185.52 249.727 1162.26 249.727C1139 249.727 1128.37 262.668 1128.37 291.168V316.433C1128.37 344.933 1139 357.873 1162.26 357.873Z" fill="black"/>
</svg>
