<svg xmlns="http://www.w3.org/2000/svg" viewBox="0 0 112 48">
  <path class="cls-1" d="M111.36,17.09q-.58,4.41-4.9,4.41a5.13,5.13,0,0,1-3.55-1.18A4.2,4.2,0,0,1,101.6,17V9.7h-2V7.25h2V2.93h3.31V7.25h5.18V9.7h-5.18v6.8c0,1.47.64,2.21,1.93,2.21a2.31,2.31,0,0,0,1.17-.39c.44-.26.74-.93.9-2ZM95.21,7a4.74,4.74,0,0,1,2.61.78l.59,4.35-2.58.31-.52-2.4a2.61,2.61,0,0,0-1.06-.31,1.93,1.93,0,0,0-1.5.72,2.9,2.9,0,0,0-.64,2v6.18h2.76v2.54H86.72V18.65H88.8V9.83H86.63V7.25h5.24V9.86a4.75,4.75,0,0,1,1.19-2A2.93,2.93,0,0,1,95.21,7ZM81.58,14.14a4.91,4.91,0,0,0-1.07-3.41,3.58,3.58,0,0,0-2.78-1.18A3.33,3.33,0,0,0,75,10.8a5.32,5.32,0,0,0-1,3.37,5.76,5.76,0,0,0,1,3.36,3.18,3.18,0,0,0,2.8,1.37,3.37,3.37,0,0,0,2.82-1.32A5.48,5.48,0,0,0,81.58,14.14Zm3.44.1A7,7,0,0,1,83,19.5a7.31,7.31,0,0,1-5.34,2,7,7,0,0,1-5.13-1.92,7,7,0,0,1-1.94-5.22,7.89,7.89,0,0,1,1.83-5.23,6.67,6.67,0,0,1,5.42-2.19,6.64,6.64,0,0,1,5.43,2.17A7.8,7.8,0,0,1,85,14.24Zm-19.59,0a5,5,0,0,0-1-3.41,3.31,3.31,0,0,0-2.6-1.16,3.11,3.11,0,0,0-2.63,1.27,5.23,5.23,0,0,0-1,3l0,1.09a3.91,3.91,0,0,0,1,2.8,3.42,3.42,0,0,0,2.59,1,3.27,3.27,0,0,0,2.74-1.24A5.35,5.35,0,0,0,65.43,14.21Zm3.44-.35a9.24,9.24,0,0,1-1.57,5.31,5.38,5.38,0,0,1-4.82,2.33,4.77,4.77,0,0,1-4.37-2.17V25.2h2.76v2.61H52.72V25.2H54.8V9.8H52.63V7.25h5.48V10a6.1,6.1,0,0,1,1.72-2.14A4.8,4.8,0,0,1,62.89,7a5.56,5.56,0,0,1,4.32,1.82A7.22,7.22,0,0,1,68.87,13.86ZM48,14.21a5,5,0,0,0-1-3.41,3.34,3.34,0,0,0-2.61-1.16,3.11,3.11,0,0,0-2.63,1.27,5.23,5.23,0,0,0-1,3l0,1.09a3.91,3.91,0,0,0,1,2.8,3.44,3.44,0,0,0,2.59,1A3.27,3.27,0,0,0,47,17.59,5.35,5.35,0,0,0,48,14.21Zm3.44-.35a9.24,9.24,0,0,1-1.57,5.31A5.38,5.38,0,0,1,45,21.5a4.77,4.77,0,0,1-4.37-2.17V25.2h2.76v2.61H35.27V25.2h2.08V9.8H35.18V7.25h5.48V10a6.1,6.1,0,0,1,1.72-2.14A4.8,4.8,0,0,1,45.44,7a5.56,5.56,0,0,1,4.32,1.82A7.22,7.22,0,0,1,51.42,13.86ZM34.37,21.19H28.89V18.86a4.77,4.77,0,0,1-4.59,2.61,5.26,5.26,0,0,1-3.43-1.19,4.69,4.69,0,0,1-1.44-3.81V9.8H17.36V7.25h5.39v8a4.34,4.34,0,0,0,.71,2.81,2.54,2.54,0,0,0,2,.83,3.07,3.07,0,0,0,2.46-1.09,4,4,0,0,0,.95-2.58V9.8H26.41V7.25H32.2v11.4h2.17Zm-18.5-5.93a5.52,5.52,0,0,1-2.09,4.63A8.81,8.81,0,0,1,8.24,21.5,15.66,15.66,0,0,1,4.29,21a7.66,7.66,0,0,1-3-1.43L1.83,15l2.76.28-.06,2.49a6.29,6.29,0,0,0,1.87.66,9.2,9.2,0,0,0,1.6.14A7,7,0,0,0,11,18a2.33,2.33,0,0,0,1.19-2.32,2.51,2.51,0,0,0-1.36-2.53,13.87,13.87,0,0,0-3.13-1,25.05,25.05,0,0,1-2.89-.74A5.33,5.33,0,0,1,2.39,9.83a4.71,4.71,0,0,1-1-3.2A5,5,0,0,1,3.58,2.08,8.76,8.76,0,0,1,8.4.69,11.89,11.89,0,0,1,12,1.25a7.43,7.43,0,0,1,2.74,1.46L14.94,7l-2.76.25L11.9,4.61a6.38,6.38,0,0,0-1.73-.69,8.29,8.29,0,0,0-1.68-.18,4.61,4.61,0,0,0-2.42.59,2,2,0,0,0-1,1.89,2.05,2.05,0,0,0,1.2,2.07A13.59,13.59,0,0,0,9,9.17q1.28.28,2.88.75a6.4,6.4,0,0,1,2.81,1.66A5,5,0,0,1,15.87,15.26ZM54.06,43a.8.8,0,0,1-.9-.89c0-.84.68-1.06,1.47-1.06a8.48,8.48,0,0,1,1.11.1A1.72,1.72,0,0,1,54.06,43Zm4.72.05a1,1,0,0,1-.32,0c-.36,0-.53-.15-.53-.6V39.14c0-1.76-1.41-2.62-3.07-2.62a7.55,7.55,0,0,0-3.3.7L51.29,39l1.76.18.26-.87a2.38,2.38,0,0,1,1.18-.22c1.25,0,1.26.94,1.26,1.73v.25A10.23,10.23,0,0,0,54.49,40c-1.76,0-3.59.44-3.59,2.34a2.17,2.17,0,0,0,2.37,2.21A2.78,2.78,0,0,0,55.75,43a1.58,1.58,0,0,0,1.7,1.54,2.87,2.87,0,0,0,1.38-.36ZM51.1,32.61H48.93L45.6,44.38h2.17Zm-4.48,0H44.45L41.12,44.38h2.17Zm-9.23,6.84H39.7V36.68H37.39Zm0,4.95H39.7V41.63H37.39ZM34,41.52l-.36,1.2H31.17l4.27-4.88-.17-1.16H28.52l-.28,2.7,1.59.17.35-1.2h2.41l-4.24,4.89.22,1.16h6.72l.48-2.7ZM22.94,42.86c-1.19,0-1.81-1-1.81-2.36s.7-2.3,1.83-2.3,1.88.7,1.88,2.26S24.09,42.86,22.94,42.86ZM23,36.52a3.87,3.87,0,0,0-4.14,4.13,3.71,3.71,0,0,0,4,3.92,3.92,3.92,0,0,0,4.24-4A3.83,3.83,0,0,0,23,36.52Zm-6.13,6.19h0V39.19a2.5,2.5,0,0,0-2.65-2.67,2.57,2.57,0,0,0-2.51,1.66,2.51,2.51,0,0,0-2.52-1.66,2.56,2.56,0,0,0-2.34,1.32V36.68H3.66v1.67h1v4.37h-1V44.4H8.34V42.72H6.87V40c0-1.08.43-1.83,1.49-1.83.87,0,1.32.51,1.32,1.85V44.4h3.23V42.72h-1V40c0-1.08.43-1.83,1.49-1.83.87,0,1.32.51,1.32,1.85v4.33H17.9V42.71ZM0,48V30.37H61.55V48Z"/>
</svg>
