<svg width="24" height="24" viewBox="0 0 24 24" fill="none" xmlns="http://www.w3.org/2000/svg">
<path fill-rule="evenodd" clip-rule="evenodd" d="M20.1175 15.9962C20.5621 15.1137 20.8645 14.1471 20.9924 13.124C21.0609 12.576 20.6722 12.0762 20.1241 12.0077C19.5761 11.9392 19.0763 12.3279 19.0078 12.876C18.9379 13.4352 18.8002 13.9731 18.6035 14.4822L20.1175 15.9962ZM9.55971 5.43839C10.3254 5.15474 11.1489 5 12.0001 5C14.5302 5 16.9078 6.52168 17.7121 8H15.0001C14.4478 8 14.0001 8.44772 14.0001 9C14.0001 9.55228 14.4478 10 15.0001 10H19.0001H20.0001C20.5524 10 21.0001 9.55228 21.0001 9V4C21.0001 3.44772 20.5524 3 20.0001 3C19.4478 3 19.0001 3.44772 19.0001 4V6.34999C17.587 4.47742 14.8577 3 12.0001 3C10.592 3 9.2439 3.32875 8.0379 3.91658L9.55971 5.43839ZM5.56214 5.68346L6.97642 7.09774C5.9146 8.16163 5.18794 9.5596 4.99238 11.124C4.92388 11.6721 4.42409 12.0608 3.87607 11.9923C3.32805 11.9238 2.93932 11.424 3.00783 10.876C3.26065 8.85339 4.19576 7.05154 5.56214 5.68346ZM16.901 17.0224L18.3156 18.4369C16.6664 20.0275 14.422 21 12.0001 21C9.14247 21 6.41323 19.5226 5.00011 17.65V20C5.00011 20.5523 4.55239 21 4.00011 21C3.44782 21 3.00011 20.5523 3.00011 20V15C3.00011 14.4477 3.44782 14 4.00011 14H5.00011H9.00011C9.55239 14 10.0001 14.4477 10.0001 15C10.0001 15.5523 9.55239 16 9.00011 16H6.28812C7.09242 17.4783 9.47001 19 12.0001 19C13.8757 19 15.617 18.2487 16.901 17.0224Z" fill="black"/>
<path d="M4 3L20.5 20" stroke="black" stroke-width="2"/>
</svg>
