<svg width="16" height="17" viewBox="0 0 16 17" fill="none" xmlns="http://www.w3.org/2000/svg">
<path d="M5.30556 13.1913C5.06125 12.8792 4.79837 12.5821 4.51836 12.3017C4.12513 11.9129 3.69662 11.5615 3.23836 11.2521L10.3392 4.16408L12.336 6.16088L5.30556 13.1913Z" fill="black"/>
<path d="M10.3391 5.06957L11.4303 6.16077L5.3503 12.2408C5.2287 12.1096 5.1039 11.9784 4.9727 11.8472C4.73696 11.6105 4.48916 11.3862 4.2303 11.1752L10.3423 5.06637L10.3391 5.06957ZM10.3423 3.25517L2.2143 11.38C2.89945 11.7384 3.52368 12.2028 4.0639 12.756C4.50346 13.1852 4.8902 13.6654 5.2159 14.1864L13.2415 6.16077L10.3391 3.25837L10.3423 3.25517Z" fill="black"/>
<path d="M1.73429 13.316C2.08284 13.5451 2.40482 13.8124 2.69429 14.1128C2.89387 14.3144 3.08089 14.5282 3.25429 14.7528L1.32789 15.172L1.73429 13.316Z" fill="black"/>
<path d="M1.27993 12.3785L0.486328 16.0137L4.20473 15.1945L4.26873 15.1305C3.97691 14.5853 3.60233 14.0888 3.15833 13.6585C2.63665 13.0986 1.9973 12.6614 1.28633 12.3785H1.27993Z" fill="black"/>
<path d="M12.1599 2.35604L12.8735 1.64244C12.9335 1.58284 13.0146 1.54939 13.0991 1.54939C13.1837 1.54939 13.2648 1.58284 13.3247 1.64244L14.8575 3.18804C14.9166 3.24765 14.95 3.32809 14.9503 3.41204C14.9506 3.45416 14.9425 3.49591 14.9266 3.53489C14.9106 3.57388 14.8872 3.60934 14.8575 3.63924L14.1439 4.34004L12.1599 2.35604Z" fill="black"/>
<path d="M13.0847 2.32075L14.1759 3.41195L14.1439 3.44395L13.0527 2.35275L13.0847 2.32075ZM13.0847 0.909549C12.8317 0.909769 12.5891 1.00982 12.4095 1.18795L11.2447 2.35595L14.1439 5.25515L15.3087 4.09035C15.4875 3.91048 15.5878 3.66717 15.5878 3.41355C15.5878 3.15993 15.4875 2.91662 15.3087 2.73675L13.7599 1.18795C13.5795 1.00904 13.3356 0.908923 13.0815 0.909549H13.0847Z" fill="black"/>
</svg>
