<svg xmlns="http://www.w3.org/2000/svg" xmlns:xlink="http://www.w3.org/1999/xlink" width="19" height="101">
    <defs>
      <g id="icon-twitter">
        <path d="M5.654 14.636c6.793 0 10.51-5.632 10.51-10.51 0-.157 0-.316-.008-.474.72-.52 1.347-1.174 1.844-1.916-.663.295-1.376.49-2.125.583.764-.454 1.347-1.182 1.628-2.046-.713.425-1.505.727-2.348.893C14.478.447 13.52 0 12.46 0c-2.037 0-3.694 1.657-3.694 3.695 0 .288.036.57.094.843-3.07-.15-5.792-1.628-7.614-3.86C.93 1.223.75 1.857.75 2.534c0 1.283.655 2.413 1.64 3.076-.604-.02-1.173-.186-1.67-.46v.05c0 1.787 1.275 3.285 2.96 3.624-.31.086-.633.13-.972.13-.237 0-.468-.022-.69-.066.467 1.47 1.836 2.536 3.45 2.565-1.27.994-2.86 1.584-4.59 1.584-.295 0-.59-.014-.878-.05 1.628 1.037 3.573 1.65 5.654 1.65" fill-rule="nonzero" fill="#FFF"/>
      </g>

      <g id="icon-instagram">
        <g fill-rule="nonzero" fill="#FFF">
          <path d="M9.5 1.714c2.536 0 2.836.01 3.838.056.926.042 1.428.196 1.763.327.414.152.787.395 1.093.71.316.306.558.68.71 1.092.13.334.285.836.328 1.762.046 1.002.056 1.302.056 3.838s-.01 2.836-.055 3.838c-.042.926-.196 1.43-.326 1.763-.32.83-.975 1.484-1.803 1.804-.334.13-.836.284-1.762.327-1.002.046-1.302.056-3.838.056s-2.836-.01-3.838-.055c-.926-.042-1.43-.196-1.763-.326-.414-.153-.787-.395-1.093-.71-.316-.307-.558-.68-.71-1.093-.13-.333-.285-.836-.328-1.762-.046-1.002-.056-1.302-.056-3.838s.01-2.836.055-3.838c.042-.926.196-1.428.326-1.763.153-.414.396-.787.71-1.093.307-.315.68-.558 1.093-.71.334-.13.837-.285 1.762-.327 1.002-.046 1.302-.056 3.838-.056zm0-1.71c-2.58 0-2.903.01-3.915.056-1.01.046-1.702.207-2.306.442-.634.238-1.208.612-1.683 1.095C1.114 2.07.74 2.645.5 3.28.268 3.882.107 4.573.06 5.583.014 6.597.003 6.92.003 9.5c0 2.58.01 2.903.057 3.916.046 1.01.207 1.7.442 2.305.238.635.612 1.21 1.095 1.683.475.483 1.05.857 1.682 1.095.603.235 1.294.396 2.305.442 1.012.046 1.336.057 3.915.057 2.58 0 2.903-.01 3.916-.057 1.01-.046 1.7-.207 2.305-.442 1.277-.493 2.285-1.5 2.78-2.777.233-.603.394-1.294.44-2.304.046-1.013.057-1.337.057-3.916 0-2.58-.01-2.903-.057-3.916-.046-1.01-.207-1.7-.44-2.305-.24-.635-.614-1.21-1.097-1.683C16.93 1.114 16.355.74 15.72.5c-.603-.233-1.293-.394-2.304-.44C12.403.014 12.08.003 9.5.003z"/><path d="M9.5 4.623c-2.693 0-4.877 2.184-4.877 4.877 0 2.693 2.184 4.877 4.877 4.877 2.693 0 4.877-2.184 4.877-4.877 0-2.693-2.184-4.877-4.877-4.877zm0 8.043c-1.748 0-3.166-1.418-3.166-3.166S7.752 6.334 9.5 6.334s3.166 1.418 3.166 3.166-1.418 3.166-3.166 3.166z"/>
          <circle cx="14.57" cy="4.43" r="1.14"/>
        </g>
      </g>

      <g id="icon-youtube">
        <path d="M7.333 8.897V3.704l4.994 2.606-4.994 2.587zM18.3 2.804S18.117 1.53 17.563.97c-.703-.736-1.49-.74-1.852-.783C13.126 0 9.246 0 9.246 0h-.008S5.358 0 2.77.187C2.41.23 1.623.234.92.97.364 1.53.184 2.804.184 2.804S0 4.3 0 5.796v1.402c0 1.496.185 2.992.185 2.992s.18 1.273.734 1.834c.702.736 1.626.713 2.037.79 1.48.142 6.285.186 6.285.186s3.884-.006 6.47-.193c.36-.043 1.15-.047 1.852-.783.554-.56.735-1.834.735-1.834s.183-1.496.183-2.992V5.796c0-1.496-.184-2.992-.184-2.992z" fill="#fff" fill-rule="evenodd"/>
      </g>

      <g id="icon-facebook">
        <path d="M6.823 18.68v-9H9.78l.393-3.103h-3.35l.005-1.552c0-.81.09-1.243 1.475-1.243h1.85V.68h-2.96C3.64.68 2.39 2.185 2.39 4.715v1.863H.172V9.68H2.39v9h4.433z" fill="#FFF" fill-rule="evenodd"/>
      </g>

    </defs>

    <use x="0" y="0" width="18" height="15" xlink:href="#icon-twitter" />
    <use x="0" y="25" width="19" height="19" xlink:href="#icon-instagram" />
    <use x="0" y="54" width="19" height="13" xlink:href="#icon-youtube" />
    <use x="0" y="77" width="10" height="19" xlink:href="#icon-facebook" />
</svg>
