<svg width="14" height="10" viewBox="0 0 14 10" fill="none" xmlns="http://www.w3.org/2000/svg">
    <path d="M5.02276 10.0002L0.182764 5.1612C0.0703853 5.04284 0.00867856 4.88526 0.0107949 4.72206C0.0129112 4.55886 0.0786833 4.40294 0.194093 4.28753C0.309503 4.17212 0.465424 4.10635 0.628625 4.10423C0.791826 4.10211 0.9494 4.16382 1.06776 4.2762L5.37476 8.5842L12.9338 1.0232C13.0514 0.90638 13.2105 0.84082 13.3763 0.84082C13.5421 0.84082 13.7011 0.90638 13.8188 1.0232C13.9356 1.14084 14.0011 1.29991 14.0011 1.4657C14.0011 1.63149 13.9356 1.79056 13.8188 1.9082L5.72876 9.9982L5.02276 10.0002Z" fill="#2AC3A2"/>
</svg>
