<svg fill="none" xmlns="http://www.w3.org/2000/svg" viewBox="0 0 12 18">
  <path fill-rule="evenodd" clip-rule="evenodd" d="M6 3.1999h-.2c-3.2 0-5.8 2.6-5.8 5.8 0 1.1.4 2.2 1 3.2.1.2.3.3.5.3s.3 0 .4-.1c.3-.2.4-.6.2-.9-.5-.7-.8-1.6-.8-2.5 0-2.5 2-4.5 4.5-4.5H6v2c0 .4.5.7.9.4l2.7-2.7v-.4l-2.7-2.7c-.4-.3-.9 0-.9.4v1.7Zm-.00001 8.3c0-.5-.6-.7-.9-.4l-2.7 2.8v.4l2.7 2.7c.4.3.9 0 .9-.4v-1.8h.2c3.2 0 5.80001-2.6 5.80001-5.80001 0-1.1-.3-2.2-1-3.2-.2-.3-.6-.4-.9-.2-.30001.2-.40001.6-.20001.9.50001.7.80001 1.6.80001 2.5 0 2.50001-2.00001 4.50001-4.50001 4.50001h-.2v-2Z" fill="#000"/>
</svg>
