<svg width="12" height="15" viewBox="0 0 12 15" fill="none" xmlns="http://www.w3.org/2000/svg">
<path d="M11.0655 7.62483C11.0629 7.13737 10.8844 6.66722 10.5628 6.30091C10.2412 5.9346 9.79809 5.69678 9.31505 5.63123H5.34705C5.66705 4.32883 5.34705 2.54003 5.05265 1.70803C4.78065 0.97523 4.26545 0.42803 3.70545 0.31603C3.5369 0.273098 3.36015 0.274088 3.19208 0.318905C3.02402 0.363722 2.87025 0.450871 2.74545 0.57203C2.10545 1.21203 2.47025 2.32243 2.51185 2.45043L2.56305 2.55283C2.69026 2.78265 2.76895 3.03612 2.79427 3.29757C2.81959 3.55901 2.79099 3.82288 2.71025 4.07283C2.41265 5.31123 1.39505 6.57843 0.963051 6.82803L0.931051 6.84723C0.731852 6.98768 0.569602 7.17426 0.458155 7.39102C0.346708 7.60778 0.289375 7.8483 0.291051 8.09203V12.828C0.291051 13.9992 0.931051 14.6456 2.10865 14.6456H7.79185H8.23985L8.27825 14.5592C8.5096 14.464 8.70738 14.3021 8.84642 14.0941C8.98546 13.8861 9.05948 13.6414 9.05905 13.3912V13.0936C9.05857 12.9854 9.0435 12.8778 9.01425 12.7736C9.31977 12.7336 9.60059 12.5847 9.80516 12.3543C10.0097 12.1238 10.1243 11.8273 10.1279 11.5192V11.212C10.1266 11.1041 10.1126 10.9967 10.0863 10.892C10.2464 10.7752 10.3766 10.6221 10.4662 10.4452C10.5558 10.2683 10.6021 10.0727 10.6015 9.87443V9.57683C10.6006 9.41214 10.568 9.24916 10.5055 9.09683L10.7327 8.53683C10.9487 8.28218 11.0667 7.95877 11.0655 7.62483Z" fill="black"/>
</svg>
