<svg fill="none" xmlns="http://www.w3.org/2000/svg" viewBox="0 0 16 14">
  <path d="m14.8748 11.037-5.49698-10C8.99682.346 8.31082 0 7.62482 0c-.686 0-1.372.346-1.752 1.037l-5.496997 10C-.358177 12.37.606823 14 2.12782 14H13.1228c1.52 0 2.485-1.63 1.752-2.963Zm-6.62498-.287-.25.25h-.75l-.25-.25V10l.25-.25h.75l.25.25v.75Zm0-2.688c0 .16576-.06584.32473-.18305.44194-.11722.11721-.27619.18306-.44195.18306-.16576 0-.32473-.06585-.44194-.18306-.11721-.11721-.18306-.27618-.18306-.44194V4.625c0-.16576.06585-.32473.18306-.44194C7.30009 4.06585 7.45906 4 7.62482 4c.16576 0 .32473.06585.44195.18306.11721.11721.18305.27618.18305.44194v3.437Z" fill="#FFA436"/>
</svg>
