<svg width="136" height="136" viewBox="0 0 136 136" fill="none" xmlns="http://www.w3.org/2000/svg">
<path d="M66.6667 24H29.3333C23.4423 24 18.6667 28.7756 18.6667 34.6667V98.6667C18.6667 104.558 23.4423 109.333 29.3333 109.333H77.3333L88 130.667L98.6667 109.333H109.333C115.224 109.333 120 104.558 120 98.6667V66.6667" stroke="#FFEA80" stroke-width="5" stroke-linecap="round" stroke-linejoin="round"/>
<path fill-rule="evenodd" clip-rule="evenodd" d="M101.333 21.3334C105.752 16.9151 112.915 16.9151 117.333 21.3334C121.752 25.7516 121.752 32.9151 117.333 37.3334L77.3333 77.3334L56 82.6667L61.3333 61.3334L101.333 21.3334Z" stroke="#FFEA80" stroke-width="5" stroke-linecap="round" stroke-linejoin="round"/>
<path d="M58.6667 16H21.3334C15.4423 16 10.6667 20.7756 10.6667 26.6667V90.6667C10.6667 96.5577 15.4423 101.333 21.3334 101.333H69.3334L80 122.667L90.6667 101.333H101.333C107.224 101.333 112 96.5577 112 90.6667V58.6667" stroke="#FF298A" stroke-width="5" stroke-linecap="round" stroke-linejoin="round"/>
<path fill-rule="evenodd" clip-rule="evenodd" d="M93.3334 13.3334C97.7516 8.91508 104.915 8.91508 109.333 13.3334C113.752 17.7516 113.752 24.9151 109.333 29.3334L69.3334 69.3334L48 74.6667L53.3334 53.3334L93.3334 13.3334Z" stroke="#FF298A" stroke-width="5" stroke-linecap="round" stroke-linejoin="round"/>
</svg>
