<svg xmlns="http://www.w3.org/2000/svg" viewBox="0 0 24 24">
  <path id="icon-globe" d="M12,1A11,11,0,1,0,23,12,11,11,0,0,0,12,1Zm-.67,20.17a9.68,9.68,0,0,1-5.67-2.72A9.37,9.37,0,0,1,5.14,5.58a9.22,9.22,0,0,1,.11,1.29C5.16,8.14,5,8.93,5.79,10a5.15,5.15,0,0,1,.51,1.49c.14.48.7.72,1.08,1,.78.59,1.53,1.27,2.35,1.79.55.34.89.51.73,1.16A4.28,4.28,0,0,1,10,16.77,2.5,2.5,0,0,0,10.47,18a16.63,16.63,0,0,0,1.25,1.12C12.41,19.64,11.65,20.37,11.33,21.17Zm7.42-2.56A9.26,9.26,0,0,1,14,21.17a3.74,3.74,0,0,1,1.13-1.53,3.92,3.92,0,0,0,1-1.27,8.19,8.19,0,0,1,.7-1.22c.37-.56-.9-1.42-1.31-1.6A13.48,13.48,0,0,1,13.06,14c-.59-.42-1.77.21-2.43-.08a12.61,12.61,0,0,1-2.44-1.68c-.81-.62-.77-1.34-.77-2.24.63,0,1.54-.18,2,.33.13.17.59.89.9.63S10.09,9.93,10,9.73c-.26-.61.59-.85,1-1.26s1.79-1.39,1.69-1.78S11.5,5.21,10.84,5.38c-.1,0-1,.94-1.13,1.08,0-.3,0-.6,0-.89s-.35-.39-.33-.51c0-.31.89-.87,1.1-1.11-.15-.1-.65-.54-.81-.47-.37.15-.79.26-1.16.42a2.22,2.22,0,0,0,0-.37,8.74,8.74,0,0,1,2.34-.69l.73.29.52.62.51.53.45.15.71-.68-.18-.48V2.83a9.13,9.13,0,0,1,3.91,1.56l-.7.08a3.84,3.84,0,0,0-.36-.14c.34.74.69,1.46,1,2.18s1.23,1.6,1.38,2.42,0,1.83.15,3a5,5,0,0,0,1.22,2.32,2.39,2.39,0,0,0,1,.12A9.36,9.36,0,0,1,18.75,18.61Z"/>
</svg>
