<svg xmlns="http://www.w3.org/2000/svg" xmlns:xlink="http://www.w3.org/1999/xlink" width="22" height="22">
  <defs>
    <path id="a" d="M15.9 10c0 2.6-3.3 3.8-3.7 3.9-.1.1-.2.1-.3.1-.4 0-.8-.3-.9-.7-.2-.5.1-1.1.6-1.3.6-.2 2.3-1 2.3-2.1 0-.9-.5-1.6-1.3-1.9-1-.4-2.2.2-2.6 1.2-.2.5-.8.8-1.3.6-.5 0-.7-.6-.6-1.1.7-2.1 3-3.2 5.1-2.4 1.6.5 2.7 2 2.7 3.7zm7.1 2c0 6.1-4.9 11-11 11S1 18.1 1 12 5.9 1 12 1s11 4.9 11 11zm-2 0c0-5-4-9-9-9s-9 4-9 9 4 9 9 9 9-4 9-9zm-8.3 4.3s-.1-.1-.2-.1-.1-.1-.2-.1-.1 0-.2-.1c-.2 0-.4 0-.6.1-.1 0-.2.1-.3.2-.1.1-.2.2-.2.3 0 .1-.1.2-.1.4 0 .3.1.5.3.7.2.2.4.3.7.3.3 0 .5-.1.7-.3.2-.2.3-.4.3-.7 0-.1 0-.3-.1-.4.1-.1 0-.2-.1-.3z"/>
  </defs>
  <g fill="none" fill-rule="evenodd" transform="translate(-1 -1)">
    <mask id="b" fill="#fff">
      <use xlink:href="#a"/>
    </mask>
    <use fill="#000" fill-rule="nonzero" xlink:href="#a"/>
    <g fill="#4A4A4A" mask="url(#b)">
      <path d="M0 0h24v24H0z"/>
    </g>
  </g>
</svg>
