<?xml version="1.0" encoding="UTF-8"?>
<svg width="16" height="16" viewBox="0 0 16 16" xmlns="http://www.w3.org/2000/svg" xmlns:xlink="http://www.w3.org/1999/xlink">
    <defs>
        <path d="M7.997.005c2.172 0 2.445.01 3.298.048.851.039 1.432.174 1.941.372a3.92 3.92 0 0 1 1.417.922c.444.445.718.891.922 1.417.198.509.333 1.09.372 1.941.039.853.048 1.126.048 3.298s-.01 2.444-.048 3.297c-.039.851-.174 1.432-.372 1.941a3.92 3.92 0 0 1-.922 1.417 3.92 3.92 0 0 1-1.417.922c-.509.198-1.09.333-1.941.372-.853.039-1.126.048-3.298.048s-2.444-.01-3.297-.048c-.851-.039-1.432-.174-1.941-.372a3.92 3.92 0 0 1-1.417-.922A3.92 3.92 0 0 1 .42 13.24c-.198-.509-.333-1.09-.372-1.941C.01 10.447 0 10.175 0 8.003s.01-2.445.048-3.298c.039-.851.174-1.432.372-1.941a3.92 3.92 0 0 1 .922-1.417A3.92 3.92 0 0 1 2.76.425C3.268.227 3.849.092 4.7.053 5.553.014 5.825.005 7.997.005zm0 1.441c-2.135 0-2.388.008-3.231.047-.78.035-1.203.166-1.485.275-.374.145-.64.318-.92.598-.28.28-.453.547-.598.92-.11.282-.24.705-.275 1.485-.039.843-.047 1.096-.047 3.232 0 2.135.008 2.388.047 3.231.035.78.165 1.203.275 1.485.145.374.318.64.598.92.28.28.546.453.92.598.282.11.705.24 1.485.275.843.039 1.096.047 3.231.047 2.136 0 2.389-.008 3.232-.047.78-.035 1.203-.165 1.485-.275.373-.145.64-.318.92-.598.28-.28.453-.546.598-.92.11-.282.24-.705.275-1.485.039-.843.047-1.096.047-3.231 0-2.136-.008-2.389-.047-3.232-.035-.78-.166-1.203-.275-1.485a2.478 2.478 0 0 0-.598-.92 2.478 2.478 0 0 0-.92-.598c-.282-.11-.705-.24-1.485-.275-.843-.039-1.096-.047-3.232-.047zm0 2.45a4.107 4.107 0 1 1 0 8.213 4.107 4.107 0 0 1 0-8.213zm0 6.772a2.666 2.666 0 1 0 0-5.331 2.666 2.666 0 0 0 0 5.331zm5.23-6.935a.96.96 0 1 1-1.92 0 .96.96 0 0 1 1.92 0z" id="a"/>
    </defs>
    <g fill="none" fill-rule="evenodd">
        <path d="M0 0h16v16H0z" fill="#000"/>
        <g>
            <mask id="b" fill="#fff">
                <use xlink:href="#a"/>
            </mask>
            <use fill="#000" xlink:href="#a"/>
            <g mask="url(#b)" fill="#FFF">
                <path d="M0 0h16v16H0z"/>
            </g>
        </g>
    </g>
</svg>
